<svg xmlns="http://www.w3.org/2000/svg" width="1200" height="900" viewBox="0 0 1200 900" role="img" aria-labelledby="title desc">
<title id="title">Pourquoi l’émulsion accélère la saponification ?</title><desc id="desc">Schéma scientifique pédagogique.</desc>
<defs>
<style>
.title{font:700 46px system-ui,-apple-system,BlinkMacSystemFont,'Segoe UI',sans-serif;fill:#0b1d3a;letter-spacing:-.8px}
.subtitle{font:400 21px system-ui,-apple-system,BlinkMacSystemFont,'Segoe UI',sans-serif;fill:#2f3a49}
.h2{font:700 30px system-ui,-apple-system,BlinkMacSystemFont,'Segoe UI',sans-serif;fill:#0b1d3a}
.label{font:600 20px system-ui,-apple-system,BlinkMacSystemFont,'Segoe UI',sans-serif;fill:#0b1d3a}
.small{font:400 17px system-ui,-apple-system,BlinkMacSystemFont,'Segoe UI',sans-serif;fill:#273449}
.tiny{font:400 14px system-ui,-apple-system,BlinkMacSystemFont,'Segoe UI',sans-serif;fill:#4b5563}
.mono{font:500 19px ui-monospace,SFMono-Regular,Menlo,monospace;fill:#111827}
.box{fill:#fff;stroke:#d7dce3;stroke-width:2}
.info{fill:#f7fbff;stroke:#1769d1;stroke-width:2}
.warn{fill:#fff9ed;stroke:#d88112;stroke-width:2}
.blue{fill:#1769d1}.orange{fill:#d88112}.green{fill:#237047}.purple{fill:#6a3aa8}.red{fill:#b84b3f}.muted{fill:#667085}
.tail{fill:none;stroke:#111827;stroke-width:4;stroke-linecap:round}
.line{stroke:#d7dce3;stroke-width:2}
</style>
<radialGradient id="headBlue" cx="35%" cy="30%"><stop offset="0" stop-color="#9fd7ff"/><stop offset="1" stop-color="#1769d1"/></radialGradient>
<radialGradient id="headOrange" cx="35%" cy="30%"><stop offset="0" stop-color="#ffe19a"/><stop offset="1" stop-color="#d88112"/></radialGradient>
<marker id="arrow" markerWidth="10" markerHeight="10" refX="8" refY="3" orient="auto"><path d="M0,0 L0,6 L9,3 z" fill="#111827"/></marker>
<marker id="arrowBlue" markerWidth="10" markerHeight="10" refX="8" refY="3" orient="auto"><path d="M0,0 L0,6 L9,3 z" fill="#1769d1"/></marker>
<marker id="arrowOrange" markerWidth="10" markerHeight="10" refX="8" refY="3" orient="auto"><path d="M0,0 L0,6 L9,3 z" fill="#d88112"/></marker>
</defs>
<rect width="100%" height="100%" fill="#fbfaf6"/>
<text x="600.0" y="72" text-anchor="middle" class="title">Pourquoi l’émulsion accélère la saponification ?</text>
<text x="600.0" y="112" text-anchor="middle" class="subtitle">Le mixage augmente fortement la surface de contact huile/eau.</text>

<rect x="115" y="210" width="430" height="420" rx="24" fill="#fff9ed" stroke="#d88112" stroke-width="2"/>
<text x="330" y="270" text-anchor="middle" class="h2 orange">Sans émulsion</text><path d="M165 330 H495 V455 H165Z" fill="#ffe1a3"/><path d="M165 455 H495 V575 H165Z" fill="#dcefff"/><line x1="165" y1="455" x2="495" y2="455" stroke="#111827" stroke-width="3"/><text x="235" y="410" class="small">huile</text><text x="230" y="530" class="small">eau + NaOH</text><text x="205" y="610" class="small">faible surface d’interface</text>
<rect x="655" y="210" width="430" height="420" rx="24" fill="#f7fbff" stroke="#1769d1" stroke-width="2"/>
<text x="870" y="270" text-anchor="middle" class="h2 blue">Avec émulsion</text><rect x="705" y="330" width="330" height="245" fill="#dcefff"/><g transform="translate(760 400) scale(.45)"><circle cx="0" cy="0" r="27.4" fill="#ffd474" opacity=".95"/><line x1="30.2" y1="0.0" x2="72.0" y2="0.0" stroke="#111827" stroke-width="3"/><circle cx="72.0" cy="0.0" r="10" fill="url(#headBlue)" stroke="#0b4fa3" stroke-width="1.5"/><line x1="26.2" y1="15.1" x2="62.4" y2="36.0" stroke="#111827" stroke-width="3"/><circle cx="62.4" cy="36.0" r="10" fill="url(#headBlue)" stroke="#0b4fa3" stroke-width="1.5"/><line x1="15.1" y1="26.2" x2="36.0" y2="62.4" stroke="#111827" stroke-width="3"/><circle cx="36.0" cy="62.4" r="10" fill="url(#headBlue)" stroke="#0b4fa3" stroke-width="1.5"/><line x1="0.0" y1="30.2" x2="0.0" y2="72.0" stroke="#111827" stroke-width="3"/><circle cx="0.0" cy="72.0" r="10" fill="url(#headBlue)" stroke="#0b4fa3" stroke-width="1.5"/><line x1="-15.1" y1="26.2" x2="-36.0" y2="62.4" stroke="#111827" stroke-width="3"/><circle cx="-36.0" cy="62.4" r="10" fill="url(#headBlue)" stroke="#0b4fa3" stroke-width="1.5"/><line x1="-26.2" y1="15.1" x2="-62.4" y2="36.0" stroke="#111827" stroke-width="3"/><circle cx="-62.4" cy="36.0" r="10" fill="url(#headBlue)" stroke="#0b4fa3" stroke-width="1.5"/><line x1="-30.2" y1="0.0" x2="-72.0" y2="0.0" stroke="#111827" stroke-width="3"/><circle cx="-72.0" cy="0.0" r="10" fill="url(#headBlue)" stroke="#0b4fa3" stroke-width="1.5"/><line x1="-26.2" y1="-15.1" x2="-62.4" y2="-36.0" stroke="#111827" stroke-width="3"/><circle cx="-62.4" cy="-36.0" r="10" fill="url(#headBlue)" stroke="#0b4fa3" stroke-width="1.5"/><line x1="-15.1" y1="-26.2" x2="-36.0" y2="-62.4" stroke="#111827" stroke-width="3"/><circle cx="-36.0" cy="-62.4" r="10" fill="url(#headBlue)" stroke="#0b4fa3" stroke-width="1.5"/><line x1="-0.0" y1="-30.2" x2="-0.0" y2="-72.0" stroke="#111827" stroke-width="3"/><circle cx="-0.0" cy="-72.0" r="10" fill="url(#headBlue)" stroke="#0b4fa3" stroke-width="1.5"/><line x1="15.1" y1="-26.2" x2="36.0" y2="-62.4" stroke="#111827" stroke-width="3"/><circle cx="36.0" cy="-62.4" r="10" fill="url(#headBlue)" stroke="#0b4fa3" stroke-width="1.5"/><line x1="26.2" y1="-15.1" x2="62.4" y2="-36.0" stroke="#111827" stroke-width="3"/><circle cx="62.4" cy="-36.0" r="10" fill="url(#headBlue)" stroke="#0b4fa3" stroke-width="1.5"/></g><g transform="translate(890 455) scale(.55)"><circle cx="0" cy="0" r="27.4" fill="#ffd474" opacity=".95"/><line x1="30.2" y1="0.0" x2="72.0" y2="0.0" stroke="#111827" stroke-width="3"/><circle cx="72.0" cy="0.0" r="10" fill="url(#headBlue)" stroke="#0b4fa3" stroke-width="1.5"/><line x1="27.2" y1="13.1" x2="64.9" y2="31.2" stroke="#111827" stroke-width="3"/><circle cx="64.9" cy="31.2" r="10" fill="url(#headBlue)" stroke="#0b4fa3" stroke-width="1.5"/><line x1="18.9" y1="23.6" x2="44.9" y2="56.3" stroke="#111827" stroke-width="3"/><circle cx="44.9" cy="56.3" r="10" fill="url(#headBlue)" stroke="#0b4fa3" stroke-width="1.5"/><line x1="6.7" y1="29.5" x2="16.0" y2="70.2" stroke="#111827" stroke-width="3"/><circle cx="16.0" cy="70.2" r="10" fill="url(#headBlue)" stroke="#0b4fa3" stroke-width="1.5"/><line x1="-6.7" y1="29.5" x2="-16.0" y2="70.2" stroke="#111827" stroke-width="3"/><circle cx="-16.0" cy="70.2" r="10" fill="url(#headBlue)" stroke="#0b4fa3" stroke-width="1.5"/><line x1="-18.9" y1="23.6" x2="-44.9" y2="56.3" stroke="#111827" stroke-width="3"/><circle cx="-44.9" cy="56.3" r="10" fill="url(#headBlue)" stroke="#0b4fa3" stroke-width="1.5"/><line x1="-27.2" y1="13.1" x2="-64.9" y2="31.2" stroke="#111827" stroke-width="3"/><circle cx="-64.9" cy="31.2" r="10" fill="url(#headBlue)" stroke="#0b4fa3" stroke-width="1.5"/><line x1="-30.2" y1="0.0" x2="-72.0" y2="0.0" stroke="#111827" stroke-width="3"/><circle cx="-72.0" cy="0.0" r="10" fill="url(#headBlue)" stroke="#0b4fa3" stroke-width="1.5"/><line x1="-27.2" y1="-13.1" x2="-64.9" y2="-31.2" stroke="#111827" stroke-width="3"/><circle cx="-64.9" cy="-31.2" r="10" fill="url(#headBlue)" stroke="#0b4fa3" stroke-width="1.5"/><line x1="-18.9" y1="-23.6" x2="-44.9" y2="-56.3" stroke="#111827" stroke-width="3"/><circle cx="-44.9" cy="-56.3" r="10" fill="url(#headBlue)" stroke="#0b4fa3" stroke-width="1.5"/><line x1="-6.7" y1="-29.5" x2="-16.0" y2="-70.2" stroke="#111827" stroke-width="3"/><circle cx="-16.0" cy="-70.2" r="10" fill="url(#headBlue)" stroke="#0b4fa3" stroke-width="1.5"/><line x1="6.7" y1="-29.5" x2="16.0" y2="-70.2" stroke="#111827" stroke-width="3"/><circle cx="16.0" cy="-70.2" r="10" fill="url(#headBlue)" stroke="#0b4fa3" stroke-width="1.5"/><line x1="18.9" y1="-23.6" x2="44.9" y2="-56.3" stroke="#111827" stroke-width="3"/><circle cx="44.9" cy="-56.3" r="10" fill="url(#headBlue)" stroke="#0b4fa3" stroke-width="1.5"/><line x1="27.2" y1="-13.1" x2="64.9" y2="-31.2" stroke="#111827" stroke-width="3"/><circle cx="64.9" cy="-31.2" r="10" fill="url(#headBlue)" stroke="#0b4fa3" stroke-width="1.5"/></g><g transform="translate(980 390) scale(.35)"><circle cx="0" cy="0" r="27.4" fill="#ffd474" opacity=".95"/><line x1="30.2" y1="0.0" x2="72.0" y2="0.0" stroke="#111827" stroke-width="3"/><circle cx="72.0" cy="0.0" r="10" fill="url(#headBlue)" stroke="#0b4fa3" stroke-width="1.5"/><line x1="26.2" y1="15.1" x2="62.4" y2="36.0" stroke="#111827" stroke-width="3"/><circle cx="62.4" cy="36.0" r="10" fill="url(#headBlue)" stroke="#0b4fa3" stroke-width="1.5"/><line x1="15.1" y1="26.2" x2="36.0" y2="62.4" stroke="#111827" stroke-width="3"/><circle cx="36.0" cy="62.4" r="10" fill="url(#headBlue)" stroke="#0b4fa3" stroke-width="1.5"/><line x1="0.0" y1="30.2" x2="0.0" y2="72.0" stroke="#111827" stroke-width="3"/><circle cx="0.0" cy="72.0" r="10" fill="url(#headBlue)" stroke="#0b4fa3" stroke-width="1.5"/><line x1="-15.1" y1="26.2" x2="-36.0" y2="62.4" stroke="#111827" stroke-width="3"/><circle cx="-36.0" cy="62.4" r="10" fill="url(#headBlue)" stroke="#0b4fa3" stroke-width="1.5"/><line x1="-26.2" y1="15.1" x2="-62.4" y2="36.0" stroke="#111827" stroke-width="3"/><circle cx="-62.4" cy="36.0" r="10" fill="url(#headBlue)" stroke="#0b4fa3" stroke-width="1.5"/><line x1="-30.2" y1="0.0" x2="-72.0" y2="0.0" stroke="#111827" stroke-width="3"/><circle cx="-72.0" cy="0.0" r="10" fill="url(#headBlue)" stroke="#0b4fa3" stroke-width="1.5"/><line x1="-26.2" y1="-15.1" x2="-62.4" y2="-36.0" stroke="#111827" stroke-width="3"/><circle cx="-62.4" cy="-36.0" r="10" fill="url(#headBlue)" stroke="#0b4fa3" stroke-width="1.5"/><line x1="-15.1" y1="-26.2" x2="-36.0" y2="-62.4" stroke="#111827" stroke-width="3"/><circle cx="-36.0" cy="-62.4" r="10" fill="url(#headBlue)" stroke="#0b4fa3" stroke-width="1.5"/><line x1="-0.0" y1="-30.2" x2="-0.0" y2="-72.0" stroke="#111827" stroke-width="3"/><circle cx="-0.0" cy="-72.0" r="10" fill="url(#headBlue)" stroke="#0b4fa3" stroke-width="1.5"/><line x1="15.1" y1="-26.2" x2="36.0" y2="-62.4" stroke="#111827" stroke-width="3"/><circle cx="36.0" cy="-62.4" r="10" fill="url(#headBlue)" stroke="#0b4fa3" stroke-width="1.5"/><line x1="26.2" y1="-15.1" x2="62.4" y2="-36.0" stroke="#111827" stroke-width="3"/><circle cx="62.4" cy="-36.0" r="10" fill="url(#headBlue)" stroke="#0b4fa3" stroke-width="1.5"/></g><text x="735" y="610" class="small">grande surface d’interface</text>
<path d="M555 420 H640" stroke="#111827" stroke-width="5" marker-end="url(#arrow)"/><text x="565" y="395" class="small">mixage</text>
<rect x="190" y="735" width="820" height="75" rx="18" class="info"/><text x="230" y="780" class="small">La réaction se fait à l’interface huile/eau : plus l’interface est grande, plus elle est rapide.</text>

</svg>