<svg xmlns="http://www.w3.org/2000/svg" width="1400" height="900" viewBox="0 0 1400 900">
<style>
  .bg { fill:#FBFAF7; }
  .panel { fill:#F7F5F0; stroke:#D2C8B8; stroke-width:2.2; }
  .panelBlue { fill:#F1F6FD; stroke:#2B6CCF; stroke-width:2.2; }
  .panelOrange { fill:#FCF5E8; stroke:#D98310; stroke-width:2.2; }
  .panelGreen { fill:#EFF7F1; stroke:#2C7A48; stroke-width:2.2; }
  .ink { fill:#142544; font-family:Roboto,Arial,sans-serif; }
  .muted { fill:#4B5563; font-family:Roboto,Arial,sans-serif; }
  .small { font-size:18px; }
  .body { font-size:22px; }
  .h1 { font-size:44px; font-weight:800; }
  .h2 { font-size:28px; font-weight:700; }
  .h3 { font-size:24px; font-weight:700; }
  .blue { fill:#2B6CCF; }
  .orange { fill:#D98310; }
  .green { fill:#2C7A48; }
  .darkstroke { stroke:#142544; stroke-width:4; fill:none; stroke-linecap:round; stroke-linejoin:round; }
  .bluestroke { stroke:#2B6CCF; stroke-width:3.5; fill:none; stroke-linecap:round; stroke-linejoin:round; }
  .orangestroke { stroke:#D98310; stroke-width:3.5; fill:none; stroke-linecap:round; stroke-linejoin:round; }
  .greenstroke { stroke:#2C7A48; stroke-width:3.5; fill:none; stroke-linecap:round; stroke-linejoin:round; }
  .redstroke { stroke:#D1495B; stroke-width:3; fill:none; stroke-linecap:round; stroke-linejoin:round; }
  .dash { stroke-dasharray:8 8; }
</style>
<defs>
  <marker id="arrow" markerWidth="12" markerHeight="12" refX="10" refY="6" orient="auto">
    <path d="M0,0 L12,6 L0,12 z" fill="#142544"/>
  </marker>
  <marker id="blueArrow" markerWidth="10" markerHeight="10" refX="8" refY="5" orient="auto">
    <path d="M0,0 L10,5 L0,10 z" fill="#2B6CCF"/>
  </marker>
  <marker id="orangeArrow" markerWidth="10" markerHeight="10" refX="8" refY="5" orient="auto">
    <path d="M0,0 L10,5 L0,10 z" fill="#D98310"/>
  </marker>
  <marker id="redArrow" markerWidth="8" markerHeight="8" refX="6" refY="4" orient="auto">
    <path d="M0,0 L8,4 L0,8 z" fill="#D1495B"/>
  </marker>
</defs>
<rect class="bg" width="1400" height="900" rx="18"/>

<rect class="panel" x="50" y="50" width="1300" height="800" rx="24"/>
<text class="ink h1" x="700" y="110" text-anchor="middle">Point de Krafft et point de trouble</text>
<text class="muted body" x="700" y="150" text-anchor="middle">Les ioniques craignent surtout le froid ; les non ioniques éthoxylés craignent surtout le chaud.</text>

<rect class="panelBlue" x="110" y="220" width="500" height="380" rx="24"/>
<text class="ink h2 blue" x="360" y="270" text-anchor="middle">Ionique — point de Krafft</text>
<line x1="170" y1="530" x2="170" y2="305" class="bluestroke" marker-end="url(#blueArrow)"/>
<text class="muted small blue" x="145" y="325">chaud</text><text class="muted small blue" x="148" y="530">froid</text>
<line x1="215" y1="410" x2="565" y2="410" class="bluestroke dash"/>
<rect x="315" y="392" width="160" height="36" rx="14" fill="#2B6CCF"/><text x="395" y="417" text-anchor="middle" fill="white" font-family="Roboto,Arial,sans-serif" font-size="19" font-weight="700">Point de Krafft</text>
<text class="ink body blue" x="240" y="370">au-dessus</text>
<text class="muted small" x="240" y="395">solubilité suffisante · micelles possibles</text>
<circle cx="480" cy="350" r="20" fill="#F2C45B"/><line x1="501.0" y1="350.0" x2="520.0" y2="350.0" stroke="#142544" stroke-width="2.3"/><circle cx="520.0" cy="350.0" r="6" fill="#4A86D9" stroke="#2B6CCF" stroke-width="2"/><line x1="498.2" y1="360.5" x2="514.6" y2="370.0" stroke="#142544" stroke-width="2.3"/><circle cx="514.6" cy="370.0" r="6" fill="#4A86D9" stroke="#2B6CCF" stroke-width="2"/><line x1="490.5" y1="368.2" x2="500.0" y2="384.6" stroke="#142544" stroke-width="2.3"/><circle cx="500.0" cy="384.6" r="6" fill="#4A86D9" stroke="#2B6CCF" stroke-width="2"/><line x1="480.0" y1="371.0" x2="480.0" y2="390.0" stroke="#142544" stroke-width="2.3"/><circle cx="480.0" cy="390.0" r="6" fill="#4A86D9" stroke="#2B6CCF" stroke-width="2"/><line x1="469.5" y1="368.2" x2="460.0" y2="384.6" stroke="#142544" stroke-width="2.3"/><circle cx="460.0" cy="384.6" r="6" fill="#4A86D9" stroke="#2B6CCF" stroke-width="2"/><line x1="461.8" y1="360.5" x2="445.4" y2="370.0" stroke="#142544" stroke-width="2.3"/><circle cx="445.4" cy="370.0" r="6" fill="#4A86D9" stroke="#2B6CCF" stroke-width="2"/><line x1="459.0" y1="350.0" x2="440.0" y2="350.0" stroke="#142544" stroke-width="2.3"/><circle cx="440.0" cy="350.0" r="6" fill="#4A86D9" stroke="#2B6CCF" stroke-width="2"/><line x1="461.8" y1="339.5" x2="445.4" y2="330.0" stroke="#142544" stroke-width="2.3"/><circle cx="445.4" cy="330.0" r="6" fill="#4A86D9" stroke="#2B6CCF" stroke-width="2"/><line x1="469.5" y1="331.8" x2="460.0" y2="315.4" stroke="#142544" stroke-width="2.3"/><circle cx="460.0" cy="315.4" r="6" fill="#4A86D9" stroke="#2B6CCF" stroke-width="2"/><line x1="480.0" y1="329.0" x2="480.0" y2="310.0" stroke="#142544" stroke-width="2.3"/><circle cx="480.0" cy="310.0" r="6" fill="#4A86D9" stroke="#2B6CCF" stroke-width="2"/><line x1="490.5" y1="331.8" x2="500.0" y2="315.4" stroke="#142544" stroke-width="2.3"/><circle cx="500.0" cy="315.4" r="6" fill="#4A86D9" stroke="#2B6CCF" stroke-width="2"/><line x1="498.2" y1="339.5" x2="514.6" y2="330.0" stroke="#142544" stroke-width="2.3"/><circle cx="514.6" cy="330.0" r="6" fill="#4A86D9" stroke="#2B6CCF" stroke-width="2"/>
<text class="ink body blue" x="240" y="470">en dessous</text>
<text class="muted small" x="240" y="495">solubilité trop faible · solide / précipité</text>
<path d="M425 530 L465 485 L505 530 L545 485 L585 530 Z" fill="#D5E4F6" stroke="#78AEEA"/>

<rect class="panelOrange" x="790" y="220" width="500" height="380" rx="24"/>
<text class="ink h2 orange" x="1040" y="270" text-anchor="middle">Non ionique — point de trouble</text>
<line x1="850" y1="530" x2="850" y2="305" class="orangestroke" marker-end="url(#orangeArrow)"/>
<text class="muted small orange" x="825" y="325">chaud</text><text class="muted small orange" x="828" y="530">froid</text>
<line x1="895" y1="410" x2="1245" y2="410" class="orangestroke dash"/>
<rect x="990" y="392" width="170" height="36" rx="14" fill="#D98310"/><text x="1075" y="417" text-anchor="middle" fill="white" font-family="Roboto,Arial,sans-serif" font-size="19" font-weight="700">Point de trouble</text>
<text class="ink body orange" x="920" y="370">au-dessus</text>
<text class="muted small" x="920" y="395">solution trouble · déshydratation</text>
<circle cx="1170" cy="350" r="18" fill="#F2C45B"/>
<circle cx="1206.0" cy="350.0" r="5" fill="#E9AB57" stroke="#D98310" stroke-width="1.5"/><circle cx="1201.2" cy="368.0" r="5" fill="#E9AB57" stroke="#D98310" stroke-width="1.5"/><circle cx="1188.0" cy="381.2" r="5" fill="#E9AB57" stroke="#D98310" stroke-width="1.5"/><circle cx="1170.0" cy="386.0" r="5" fill="#E9AB57" stroke="#D98310" stroke-width="1.5"/><circle cx="1152.0" cy="381.2" r="5" fill="#E9AB57" stroke="#D98310" stroke-width="1.5"/><circle cx="1138.8" cy="368.0" r="5" fill="#E9AB57" stroke="#D98310" stroke-width="1.5"/><circle cx="1134.0" cy="350.0" r="5" fill="#E9AB57" stroke="#D98310" stroke-width="1.5"/><circle cx="1138.8" cy="332.0" r="5" fill="#E9AB57" stroke="#D98310" stroke-width="1.5"/><circle cx="1152.0" cy="318.8" r="5" fill="#E9AB57" stroke="#D98310" stroke-width="1.5"/><circle cx="1170.0" cy="314.0" r="5" fill="#E9AB57" stroke="#D98310" stroke-width="1.5"/><circle cx="1188.0" cy="318.8" r="5" fill="#E9AB57" stroke="#D98310" stroke-width="1.5"/><circle cx="1201.2" cy="332.0" r="5" fill="#E9AB57" stroke="#D98310" stroke-width="1.5"/>
<text class="ink body orange" x="920" y="470">en dessous</text>
<text class="muted small" x="920" y="495">solution limpide et hydratée</text>
<path d="M1030 525 C1060 505, 1090 545, 1120 525 S1180 545, 1210 525" class="darkstroke"/>
<circle cx="1030" cy="525" r="6" fill="#F2C45B" stroke="#D98310" stroke-width="2"/><circle cx="1120" cy="525" r="6" fill="#F2C45B" stroke="#D98310" stroke-width="2"/><circle cx="1210" cy="525" r="6" fill="#F2C45B" stroke="#D98310" stroke-width="2"/>
<rect class="panel" x="280" y="680" width="840" height="70" rx="16"/>
<text class="muted body" x="700" y="723" text-anchor="middle">Krafft = limite basse de micellisation ; trouble = limite haute de stabilité en solution.</text>

</svg>