<svg xmlns="http://www.w3.org/2000/svg" width="1200" height="930" viewBox="0 0 1200 930" role="img" aria-labelledby="title desc">
<title id="title">Point de Krafft et point de trouble</title><desc id="desc">Schéma scientifique pédagogique.</desc>
<defs>
<style>
.title{font:700 46px Roboto,Arial,sans-serif;fill:#0b1d3a;letter-spacing:-.8px}
.subtitle{font:400 21px Roboto,Arial,sans-serif;fill:#2f3a49}
.h2{font:700 30px Roboto,Arial,sans-serif;fill:#0b1d3a}
.label{font:600 20px Roboto,Arial,sans-serif;fill:#0b1d3a}
.small{font:400 17px Roboto,Arial,sans-serif;fill:#273449}
.tiny{font:400 14px Roboto,Arial,sans-serif;fill:#4b5563}
.mono{font:500 19px Roboto,Arial,sans-serif;fill:#111827}
.box{fill:#fff;stroke:#d7dce3;stroke-width:2}
.info{fill:#f7fbff;stroke:#1769d1;stroke-width:2}
.warn{fill:#fff9ed;stroke:#d88112;stroke-width:2}
.blue{fill:#1769d1}.orange{fill:#d88112}.green{fill:#237047}.purple{fill:#6a3aa8}.red{fill:#b84b3f}.muted{fill:#667085}
.tail{fill:none;stroke:#111827;stroke-width:4;stroke-linecap:round}
.line{stroke:#d7dce3;stroke-width:2}
</style>
<radialGradient id="headBlue" cx="35%" cy="30%"><stop offset="0" stop-color="#9fd7ff"/><stop offset="1" stop-color="#1769d1"/></radialGradient>
<radialGradient id="headOrange" cx="35%" cy="30%"><stop offset="0" stop-color="#ffe19a"/><stop offset="1" stop-color="#d88112"/></radialGradient>
<marker id="arrow" markerWidth="10" markerHeight="10" refX="8" refY="3" orient="auto"><path d="M0,0 L0,6 L9,3 z" fill="#111827"/></marker>
<marker id="arrowBlue" markerWidth="10" markerHeight="10" refX="8" refY="3" orient="auto"><path d="M0,0 L0,6 L9,3 z" fill="#1769d1"/></marker>
<marker id="arrowOrange" markerWidth="10" markerHeight="10" refX="8" refY="3" orient="auto"><path d="M0,0 L0,6 L9,3 z" fill="#d88112"/></marker>
</defs>
<rect width="100%" height="100%" fill="#fbfaf6"/>
<text x="600.0" y="72" text-anchor="middle" class="title">Point de Krafft et point de trouble</text>
<text x="600.0" y="112" text-anchor="middle" class="subtitle">La température peut limiter l’efficacité selon la famille de tensioactif.</text>

<rect x="80" y="180" width="500" height="560" rx="24" fill="#f7fbff" stroke="#1769d1" stroke-width="2"/>
<text x="330" y="235" text-anchor="middle" class="h2 blue">Ionique — point de Krafft</text>
<line x1="130" y1="670" x2="130" y2="280" stroke="#1769d1" stroke-width="5" marker-end="url(#arrowBlue)"/><text x="105" y="310" class="small blue">chaud</text><text x="105" y="685" class="small blue">froid</text>
<line x1="150" y1="475" x2="550" y2="475" stroke="#1769d1" stroke-dasharray="8 8" stroke-width="3"/><rect x="245" y="455" width="185" height="40" rx="14" fill="#1769d1"/><text x="337" y="482" text-anchor="middle" fill="#fff" font-size="18" font-weight="700">Point de Krafft</text>
<text x="210" y="335" class="label blue">au-dessus</text><text x="210" y="365" class="small">micellisation possible</text><g transform="translate(410 355) scale(.62)"><circle cx="0" cy="0" r="27.4" fill="#ffd474" opacity=".95"/><line x1="30.2" y1="0.0" x2="72.0" y2="0.0" stroke="#111827" stroke-width="3"/><circle cx="72.0" cy="0.0" r="10" fill="url(#headBlue)" stroke="#0b4fa3" stroke-width="1.5"/><line x1="27.2" y1="13.1" x2="64.9" y2="31.2" stroke="#111827" stroke-width="3"/><circle cx="64.9" cy="31.2" r="10" fill="url(#headBlue)" stroke="#0b4fa3" stroke-width="1.5"/><line x1="18.9" y1="23.6" x2="44.9" y2="56.3" stroke="#111827" stroke-width="3"/><circle cx="44.9" cy="56.3" r="10" fill="url(#headBlue)" stroke="#0b4fa3" stroke-width="1.5"/><line x1="6.7" y1="29.5" x2="16.0" y2="70.2" stroke="#111827" stroke-width="3"/><circle cx="16.0" cy="70.2" r="10" fill="url(#headBlue)" stroke="#0b4fa3" stroke-width="1.5"/><line x1="-6.7" y1="29.5" x2="-16.0" y2="70.2" stroke="#111827" stroke-width="3"/><circle cx="-16.0" cy="70.2" r="10" fill="url(#headBlue)" stroke="#0b4fa3" stroke-width="1.5"/><line x1="-18.9" y1="23.6" x2="-44.9" y2="56.3" stroke="#111827" stroke-width="3"/><circle cx="-44.9" cy="56.3" r="10" fill="url(#headBlue)" stroke="#0b4fa3" stroke-width="1.5"/><line x1="-27.2" y1="13.1" x2="-64.9" y2="31.2" stroke="#111827" stroke-width="3"/><circle cx="-64.9" cy="31.2" r="10" fill="url(#headBlue)" stroke="#0b4fa3" stroke-width="1.5"/><line x1="-30.2" y1="0.0" x2="-72.0" y2="0.0" stroke="#111827" stroke-width="3"/><circle cx="-72.0" cy="0.0" r="10" fill="url(#headBlue)" stroke="#0b4fa3" stroke-width="1.5"/><line x1="-27.2" y1="-13.1" x2="-64.9" y2="-31.2" stroke="#111827" stroke-width="3"/><circle cx="-64.9" cy="-31.2" r="10" fill="url(#headBlue)" stroke="#0b4fa3" stroke-width="1.5"/><line x1="-18.9" y1="-23.6" x2="-44.9" y2="-56.3" stroke="#111827" stroke-width="3"/><circle cx="-44.9" cy="-56.3" r="10" fill="url(#headBlue)" stroke="#0b4fa3" stroke-width="1.5"/><line x1="-6.7" y1="-29.5" x2="-16.0" y2="-70.2" stroke="#111827" stroke-width="3"/><circle cx="-16.0" cy="-70.2" r="10" fill="url(#headBlue)" stroke="#0b4fa3" stroke-width="1.5"/><line x1="6.7" y1="-29.5" x2="16.0" y2="-70.2" stroke="#111827" stroke-width="3"/><circle cx="16.0" cy="-70.2" r="10" fill="url(#headBlue)" stroke="#0b4fa3" stroke-width="1.5"/><line x1="18.9" y1="-23.6" x2="44.9" y2="-56.3" stroke="#111827" stroke-width="3"/><circle cx="44.9" cy="-56.3" r="10" fill="url(#headBlue)" stroke="#0b4fa3" stroke-width="1.5"/><line x1="27.2" y1="-13.1" x2="64.9" y2="-31.2" stroke="#111827" stroke-width="3"/><circle cx="64.9" cy="-31.2" r="10" fill="url(#headBlue)" stroke="#0b4fa3" stroke-width="1.5"/></g>
<text x="210" y="560" class="label blue">en dessous</text><text x="210" y="590" class="small">solubilité trop faible</text><polygon points="360,650 405,595 455,650" fill="#dcefff" stroke="#68aee8"/><polygon points="295,650 330,610 365,650" fill="#dcefff" stroke="#68aee8"/>
<rect x="620" y="180" width="500" height="560" rx="24" fill="#fff9ed" stroke="#d88112" stroke-width="2"/>
<text x="870" y="235" text-anchor="middle" class="h2 orange">Non ionique — point de trouble</text>
<line x1="670" y1="670" x2="670" y2="280" stroke="#d88112" stroke-width="5" marker-end="url(#arrowOrange)"/><text x="645" y="310" class="small orange">chaud</text><text x="645" y="685" class="small orange">froid</text>
<line x1="690" y1="475" x2="1090" y2="475" stroke="#d88112" stroke-dasharray="8 8" stroke-width="3"/><rect x="785" y="455" width="185" height="40" rx="14" fill="#d88112"/><text x="877" y="482" text-anchor="middle" fill="#fff" font-size="18" font-weight="700">Point de trouble</text>
<text x="750" y="335" class="label orange">au-dessus</text><text x="750" y="365" class="small">solution trouble / déshydratation</text><g transform="translate(990 345) scale(.55)"><circle cx="0" cy="0" r="27.4" fill="#ffd474" opacity=".95"/><line x1="30.2" y1="0.0" x2="72.0" y2="0.0" stroke="#111827" stroke-width="3"/><circle cx="72.0" cy="0.0" r="10" fill="url(#headOrange)" stroke="#0b4fa3" stroke-width="1.5"/><line x1="27.2" y1="13.1" x2="64.9" y2="31.2" stroke="#111827" stroke-width="3"/><circle cx="64.9" cy="31.2" r="10" fill="url(#headOrange)" stroke="#0b4fa3" stroke-width="1.5"/><line x1="18.9" y1="23.6" x2="44.9" y2="56.3" stroke="#111827" stroke-width="3"/><circle cx="44.9" cy="56.3" r="10" fill="url(#headOrange)" stroke="#0b4fa3" stroke-width="1.5"/><line x1="6.7" y1="29.5" x2="16.0" y2="70.2" stroke="#111827" stroke-width="3"/><circle cx="16.0" cy="70.2" r="10" fill="url(#headOrange)" stroke="#0b4fa3" stroke-width="1.5"/><line x1="-6.7" y1="29.5" x2="-16.0" y2="70.2" stroke="#111827" stroke-width="3"/><circle cx="-16.0" cy="70.2" r="10" fill="url(#headOrange)" stroke="#0b4fa3" stroke-width="1.5"/><line x1="-18.9" y1="23.6" x2="-44.9" y2="56.3" stroke="#111827" stroke-width="3"/><circle cx="-44.9" cy="56.3" r="10" fill="url(#headOrange)" stroke="#0b4fa3" stroke-width="1.5"/><line x1="-27.2" y1="13.1" x2="-64.9" y2="31.2" stroke="#111827" stroke-width="3"/><circle cx="-64.9" cy="31.2" r="10" fill="url(#headOrange)" stroke="#0b4fa3" stroke-width="1.5"/><line x1="-30.2" y1="0.0" x2="-72.0" y2="0.0" stroke="#111827" stroke-width="3"/><circle cx="-72.0" cy="0.0" r="10" fill="url(#headOrange)" stroke="#0b4fa3" stroke-width="1.5"/><line x1="-27.2" y1="-13.1" x2="-64.9" y2="-31.2" stroke="#111827" stroke-width="3"/><circle cx="-64.9" cy="-31.2" r="10" fill="url(#headOrange)" stroke="#0b4fa3" stroke-width="1.5"/><line x1="-18.9" y1="-23.6" x2="-44.9" y2="-56.3" stroke="#111827" stroke-width="3"/><circle cx="-44.9" cy="-56.3" r="10" fill="url(#headOrange)" stroke="#0b4fa3" stroke-width="1.5"/><line x1="-6.7" y1="-29.5" x2="-16.0" y2="-70.2" stroke="#111827" stroke-width="3"/><circle cx="-16.0" cy="-70.2" r="10" fill="url(#headOrange)" stroke="#0b4fa3" stroke-width="1.5"/><line x1="6.7" y1="-29.5" x2="16.0" y2="-70.2" stroke="#111827" stroke-width="3"/><circle cx="16.0" cy="-70.2" r="10" fill="url(#headOrange)" stroke="#0b4fa3" stroke-width="1.5"/><line x1="18.9" y1="-23.6" x2="44.9" y2="-56.3" stroke="#111827" stroke-width="3"/><circle cx="44.9" cy="-56.3" r="10" fill="url(#headOrange)" stroke="#0b4fa3" stroke-width="1.5"/><line x1="27.2" y1="-13.1" x2="64.9" y2="-31.2" stroke="#111827" stroke-width="3"/><circle cx="64.9" cy="-31.2" r="10" fill="url(#headOrange)" stroke="#0b4fa3" stroke-width="1.5"/></g>
<text x="750" y="560" class="label orange">en dessous</text><text x="750" y="590" class="small">solution limpide et hydratée</text><circle cx="790" cy="640" r="6.3" fill="url(#headOrange)" stroke="#0b4fa3" stroke-width="0.7"/><path d="M798.4 640 C811.0 632.3 822.2 647.7 834.8 640 S856.5 632.3 868.4 640" class="tail" stroke-width="1.4"/><circle cx="860" cy="640" r="6.3" fill="url(#headOrange)" stroke="#0b4fa3" stroke-width="0.7"/><path d="M868.4 640 C881.0 632.3 892.2 647.7 904.8 640 S926.5 632.3 938.4 640" class="tail" stroke-width="1.4"/><circle cx="930" cy="640" r="6.3" fill="url(#headOrange)" stroke="#0b4fa3" stroke-width="0.7"/><path d="M938.4 640 C951.0 632.3 962.2 647.7 974.8 640 S996.5 632.3 1008.4 640" class="tail" stroke-width="1.4"/><circle cx="1000" cy="640" r="6.3" fill="url(#headOrange)" stroke="#0b4fa3" stroke-width="0.7"/><path d="M1008.4 640 C1021.0 632.3 1032.2 647.7 1044.8 640 S1066.5 632.3 1078.4 640" class="tail" stroke-width="1.4"/>
<rect x="185" y="790" width="830" height="72" rx="18" class="box"/><text x="225" y="835" class="small">Krafft = limite basse de micellisation ; trouble = limite haute de stabilité en solution.</text>

</svg>