<svg xmlns="http://www.w3.org/2000/svg" width="1000" height="1100" viewBox="0 0 1000 1100" role="img" aria-labelledby="title desc">
<title id="title">Point de Krafft et point de trouble</title><desc id="desc">Comparaison des limites de température des tensioactifs ioniques et non ioniques éthoxylés.</desc><defs>
<style>
.title{font:700 54px system-ui,-apple-system,BlinkMacSystemFont,'Segoe UI',sans-serif;fill:#0b1d3a;letter-spacing:-1px}.subtitle{font:400 23px system-ui,sans-serif;fill:#2f3a49}.h2{font:700 34px system-ui,sans-serif;fill:#0b1d3a}.label{font:600 22px system-ui,sans-serif;fill:#0b1d3a}.small{font:400 19px system-ui,sans-serif;fill:#26313f}.tiny{font:400 16px system-ui,sans-serif;fill:#415063}.blue{fill:#1769d1}.orange{fill:#d88112}.green{fill:#237047}.purple{fill:#6a3aa8}.ink{fill:#111827}.muted{fill:#4b5563}.line{stroke:#d7dce3;stroke-width:2}.box{fill:#fff;stroke:#d7dce3;stroke-width:2}.info{fill:#f7fbff;stroke:#1769d1;stroke-width:2}.warn{fill:#fff9ed;stroke:#d88112;stroke-width:2}.water{fill:#dcefff;stroke:#68aee8;stroke-width:2}.oil{fill:#ffe1a3;stroke:#e0a144;stroke-width:2}.surface{fill:#e8e5dd;stroke:#b7b3a8;stroke-width:1}.tail{fill:none;stroke:#111827;stroke-width:4;stroke-linecap:round}.dash{stroke-dasharray:8 8}.mono{font:500 20px ui-monospace,SFMono-Regular,Menlo,monospace;fill:#111827}
</style>
<radialGradient id="blueHead" cx="35%" cy="30%"><stop offset="0" stop-color="#9fd7ff"/><stop offset="1" stop-color="#1769d1"/></radialGradient>
<radialGradient id="oilDrop" cx="35%" cy="30%"><stop offset="0" stop-color="#ffe19a"/><stop offset="1" stop-color="#d88112"/></radialGradient>
<marker id="arrowBlue" markerWidth="10" markerHeight="10" refX="8" refY="3" orient="auto"><path d="M0,0 L0,6 L9,3 z" fill="#1769d1"/></marker>
<marker id="arrowOrange" markerWidth="10" markerHeight="10" refX="8" refY="3" orient="auto"><path d="M0,0 L0,6 L9,3 z" fill="#d88112"/></marker>
<marker id="arrowDark" markerWidth="10" markerHeight="10" refX="8" refY="3" orient="auto"><path d="M0,0 L0,6 L9,3 z" fill="#111827"/></marker>
</defs><rect width="100%" height="100%" fill="#fbfaf6"/>
<text x="100" y="90" class="title">Point de Krafft et point de trouble</text><text x="90" y="145" class="subtitle">La température n’affecte pas toutes les familles de tensioactifs de la même manière.</text>
<rect x="55" y="205" width="430" height="610" rx="18" fill="#f7fbff" stroke="#1769d1" stroke-width="2"/><rect x="55" y="205" width="430" height="58" rx="18" fill="#1769d1"/><text x="95" y="243" font-size="26" font-weight="700" fill="white" font-family="system-ui,sans-serif">Ionique — point de Krafft</text>
<line x1="105" y1="735" x2="105" y2="305" stroke="#1769d1" stroke-width="5" marker-end="url(#arrowBlue)"/><text x="65" y="315" class="small blue">élevée</text><text x="70" y="755" class="small blue">basse</text><text x="73" y="540" class="small" transform="rotate(-90 73 540)">Température</text><line x1="125" y1="515" x2="465" y2="515" stroke="#111827" stroke-dasharray="7 7"/><rect x="230" y="495" width="150" height="40" rx="10" fill="#1769d1"/><text x="247" y="522" font-size="21" font-weight="700" fill="white" font-family="system-ui,sans-serif">Point de Krafft</text><text x="165" y="325" class="label blue">Au-dessus : micelles possibles</text><g><circle cx="330" cy="405" r="14.4" fill="#ffd474" opacity=".95"/><line x1="348.9" y1="405.0" x2="375.0" y2="405.0" stroke="#111827" stroke-width="2.5"/><circle cx="375.0" cy="405.0" r="9" fill="url(#blueHead)" stroke="#0b4fa3" stroke-width="1.5"/><line x1="347.0" y1="413.2" x2="370.5" y2="424.5" stroke="#111827" stroke-width="2.5"/><circle cx="370.5" cy="424.5" r="9" fill="url(#blueHead)" stroke="#0b4fa3" stroke-width="1.5"/><line x1="341.8" y1="419.8" x2="358.1" y2="440.2" stroke="#111827" stroke-width="2.5"/><circle cx="358.1" cy="440.2" r="9" fill="url(#blueHead)" stroke="#0b4fa3" stroke-width="1.5"/><line x1="334.2" y1="423.4" x2="340.0" y2="448.9" stroke="#111827" stroke-width="2.5"/><circle cx="340.0" cy="448.9" r="9" fill="url(#blueHead)" stroke="#0b4fa3" stroke-width="1.5"/><line x1="325.8" y1="423.4" x2="320.0" y2="448.9" stroke="#111827" stroke-width="2.5"/><circle cx="320.0" cy="448.9" r="9" fill="url(#blueHead)" stroke="#0b4fa3" stroke-width="1.5"/><line x1="318.2" y1="419.8" x2="301.9" y2="440.2" stroke="#111827" stroke-width="2.5"/><circle cx="301.9" cy="440.2" r="9" fill="url(#blueHead)" stroke="#0b4fa3" stroke-width="1.5"/><line x1="313.0" y1="413.2" x2="289.5" y2="424.5" stroke="#111827" stroke-width="2.5"/><circle cx="289.5" cy="424.5" r="9" fill="url(#blueHead)" stroke="#0b4fa3" stroke-width="1.5"/><line x1="311.1" y1="405.0" x2="285.0" y2="405.0" stroke="#111827" stroke-width="2.5"/><circle cx="285.0" cy="405.0" r="9" fill="url(#blueHead)" stroke="#0b4fa3" stroke-width="1.5"/><line x1="313.0" y1="396.8" x2="289.5" y2="385.5" stroke="#111827" stroke-width="2.5"/><circle cx="289.5" cy="385.5" r="9" fill="url(#blueHead)" stroke="#0b4fa3" stroke-width="1.5"/><line x1="318.2" y1="390.2" x2="301.9" y2="369.8" stroke="#111827" stroke-width="2.5"/><circle cx="301.9" cy="369.8" r="9" fill="url(#blueHead)" stroke="#0b4fa3" stroke-width="1.5"/><line x1="325.8" y1="386.6" x2="320.0" y2="361.1" stroke="#111827" stroke-width="2.5"/><circle cx="320.0" cy="361.1" r="9" fill="url(#blueHead)" stroke="#0b4fa3" stroke-width="1.5"/><line x1="334.2" y1="386.6" x2="340.0" y2="361.1" stroke="#111827" stroke-width="2.5"/><circle cx="340.0" cy="361.1" r="9" fill="url(#blueHead)" stroke="#0b4fa3" stroke-width="1.5"/><line x1="341.8" y1="390.2" x2="358.1" y2="369.8" stroke="#111827" stroke-width="2.5"/><circle cx="358.1" cy="369.8" r="9" fill="url(#blueHead)" stroke="#0b4fa3" stroke-width="1.5"/><line x1="347.0" y1="396.8" x2="370.5" y2="385.5" stroke="#111827" stroke-width="2.5"/><circle cx="370.5" cy="385.5" r="9" fill="url(#blueHead)" stroke="#0b4fa3" stroke-width="1.5"/></g><g transform="translate(185 380) scale(0.55)"><circle cx="0" cy="0" r="12" fill="url(#blueHead)" stroke="#0b4fa3" stroke-width="2"/><path d="M0 13 C10 28 -10 42 0 57 C10 72 -10 86 0 100" class="tail" stroke-width="3"/></g><g transform="translate(230 435) scale(0.55)"><circle cx="0" cy="0" r="12" fill="url(#blueHead)" stroke="#0b4fa3" stroke-width="2"/><path d="M0 13 C10 28 -10 42 0 57 C10 72 -10 86 0 100" class="tail" stroke-width="3"/></g><text x="160" y="585" class="label blue">En dessous : solubilité trop faible</text><text x="195" y="620" class="small">pas assez de micelles</text><path d="M160 720 l55 -80 l50 75 l45 -55 l60 60 z" fill="#dcefff" stroke="#9bc7f2"/><text x="185" y="760" class="tiny">cristaux / précipité</text>
<rect x="515" y="205" width="430" height="610" rx="18" fill="#fffaf1" stroke="#d88112" stroke-width="2"/><rect x="515" y="205" width="430" height="58" rx="18" fill="#d88112"/><text x="552" y="243" font-size="26" font-weight="700" fill="white" font-family="system-ui,sans-serif">Non ionique éthoxylé — trouble</text>
<line x1="565" y1="735" x2="565" y2="305" stroke="#d88112" stroke-width="5" marker-end="url(#arrowOrange)"/><text x="525" y="315" class="small orange">élevée</text><text x="530" y="755" class="small orange">basse</text><text x="533" y="540" class="small" transform="rotate(-90 533 540)">Température</text><line x1="585" y1="515" x2="925" y2="515" stroke="#111827" stroke-dasharray="7 7"/><rect x="675" y="495" width="160" height="40" rx="10" fill="#d88112"/><text x="690" y="522" font-size="21" font-weight="700" fill="white" font-family="system-ui,sans-serif">Point de trouble</text><text x="635" y="325" class="label orange">Au-dessus : solution trouble</text><text x="660" y="360" class="small">déshydratation des têtes</text><g><circle cx="700" cy="420" r="13.44" fill="#ffd474" opacity=".95"/><line x1="717.6" y1="420.0" x2="742.0" y2="420.0" stroke="#111827" stroke-width="2.5"/><circle cx="742.0" cy="420.0" r="9" fill="url(#blueHead)" stroke="#0b4fa3" stroke-width="1.5"/><line x1="715.9" y1="427.7" x2="737.8" y2="438.2" stroke="#111827" stroke-width="2.5"/><circle cx="737.8" cy="438.2" r="9" fill="url(#blueHead)" stroke="#0b4fa3" stroke-width="1.5"/><line x1="711.0" y1="433.8" x2="726.2" y2="452.8" stroke="#111827" stroke-width="2.5"/><circle cx="726.2" cy="452.8" r="9" fill="url(#blueHead)" stroke="#0b4fa3" stroke-width="1.5"/><line x1="703.9" y1="437.2" x2="709.3" y2="460.9" stroke="#111827" stroke-width="2.5"/><circle cx="709.3" cy="460.9" r="9" fill="url(#blueHead)" stroke="#0b4fa3" stroke-width="1.5"/><line x1="696.1" y1="437.2" x2="690.7" y2="460.9" stroke="#111827" stroke-width="2.5"/><circle cx="690.7" cy="460.9" r="9" fill="url(#blueHead)" stroke="#0b4fa3" stroke-width="1.5"/><line x1="689.0" y1="433.8" x2="673.8" y2="452.8" stroke="#111827" stroke-width="2.5"/><circle cx="673.8" cy="452.8" r="9" fill="url(#blueHead)" stroke="#0b4fa3" stroke-width="1.5"/><line x1="684.1" y1="427.7" x2="662.2" y2="438.2" stroke="#111827" stroke-width="2.5"/><circle cx="662.2" cy="438.2" r="9" fill="url(#blueHead)" stroke="#0b4fa3" stroke-width="1.5"/><line x1="682.4" y1="420.0" x2="658.0" y2="420.0" stroke="#111827" stroke-width="2.5"/><circle cx="658.0" cy="420.0" r="9" fill="url(#blueHead)" stroke="#0b4fa3" stroke-width="1.5"/><line x1="684.1" y1="412.3" x2="662.2" y2="401.8" stroke="#111827" stroke-width="2.5"/><circle cx="662.2" cy="401.8" r="9" fill="url(#blueHead)" stroke="#0b4fa3" stroke-width="1.5"/><line x1="689.0" y1="406.2" x2="673.8" y2="387.2" stroke="#111827" stroke-width="2.5"/><circle cx="673.8" cy="387.2" r="9" fill="url(#blueHead)" stroke="#0b4fa3" stroke-width="1.5"/><line x1="696.1" y1="402.8" x2="690.7" y2="379.1" stroke="#111827" stroke-width="2.5"/><circle cx="690.7" cy="379.1" r="9" fill="url(#blueHead)" stroke="#0b4fa3" stroke-width="1.5"/><line x1="703.9" y1="402.8" x2="709.3" y2="379.1" stroke="#111827" stroke-width="2.5"/><circle cx="709.3" cy="379.1" r="9" fill="url(#blueHead)" stroke="#0b4fa3" stroke-width="1.5"/><line x1="711.0" y1="406.2" x2="726.2" y2="387.2" stroke="#111827" stroke-width="2.5"/><circle cx="726.2" cy="387.2" r="9" fill="url(#blueHead)" stroke="#0b4fa3" stroke-width="1.5"/><line x1="715.9" y1="412.3" x2="737.8" y2="401.8" stroke="#111827" stroke-width="2.5"/><circle cx="737.8" cy="401.8" r="9" fill="url(#blueHead)" stroke="#0b4fa3" stroke-width="1.5"/></g><circle cx="805" cy="405" r="35" fill="#d88112" opacity=".35"/><circle cx="850" cy="455" r="22" fill="#d88112" opacity=".25"/><text x="660" y="585" class="label orange">En dessous : solution limpide</text><g transform="translate(650 690) scale(0.55)"><circle cx="0" cy="0" r="12" fill="url(#blueHead)" stroke="#0b4fa3" stroke-width="2"/><path d="M0 13 C10 28 -10 42 0 57 C10 72 -10 86 0 100" class="tail" stroke-width="3"/></g><g transform="translate(750 650) scale(0.55)"><circle cx="0" cy="0" r="12" fill="url(#blueHead)" stroke="#0b4fa3" stroke-width="2"/><path d="M0 13 C10 28 -10 42 0 57 C10 72 -10 86 0 100" class="tail" stroke-width="3"/></g><g transform="translate(850 700) scale(0.55)"><circle cx="0" cy="0" r="12" fill="url(#blueHead)" stroke="#0b4fa3" stroke-width="2"/><path d="M0 13 C10 28 -10 42 0 57 C10 72 -10 86 0 100" class="tail" stroke-width="3"/></g>
<rect x="140" y="865" width="720" height="100" rx="18" class="box"/><text x="180" y="905" class="label blue">Point de Krafft :</text><text x="370" y="905" class="small">limite basse de solubilité / micellisation</text><text x="180" y="940" class="label orange">Point de trouble :</text><text x="375" y="940" class="small">limite haute de stabilité en solution</text><line x1="90" y1="1010" x2="910" y2="1010" stroke="#d7dce3"/><text x="120" y="1058" class="tiny">Le point de trouble concerne surtout de nombreux non ioniques éthoxylés.</text>
</svg>