<svg xmlns="http://www.w3.org/2000/svg" width="1000" height="1000" viewBox="0 0 1000 1000" role="img" aria-labelledby="title desc">
<title id="title">Nettoyage d’une salissure grasse par un tensioactif</title><desc id="desc">Cinq étapes du nettoyage par tensioactif.</desc><defs>
<style>
.title{font:700 54px system-ui,-apple-system,BlinkMacSystemFont,'Segoe UI',sans-serif;fill:#0b1d3a;letter-spacing:-1px}.subtitle{font:400 23px system-ui,sans-serif;fill:#2f3a49}.h2{font:700 34px system-ui,sans-serif;fill:#0b1d3a}.label{font:600 22px system-ui,sans-serif;fill:#0b1d3a}.small{font:400 19px system-ui,sans-serif;fill:#26313f}.tiny{font:400 16px system-ui,sans-serif;fill:#415063}.blue{fill:#1769d1}.orange{fill:#d88112}.green{fill:#237047}.purple{fill:#6a3aa8}.ink{fill:#111827}.muted{fill:#4b5563}.line{stroke:#d7dce3;stroke-width:2}.box{fill:#fff;stroke:#d7dce3;stroke-width:2}.info{fill:#f7fbff;stroke:#1769d1;stroke-width:2}.warn{fill:#fff9ed;stroke:#d88112;stroke-width:2}.water{fill:#dcefff;stroke:#68aee8;stroke-width:2}.oil{fill:#ffe1a3;stroke:#e0a144;stroke-width:2}.surface{fill:#e8e5dd;stroke:#b7b3a8;stroke-width:1}.tail{fill:none;stroke:#111827;stroke-width:4;stroke-linecap:round}.dash{stroke-dasharray:8 8}.mono{font:500 20px ui-monospace,SFMono-Regular,Menlo,monospace;fill:#111827}
</style>
<radialGradient id="blueHead" cx="35%" cy="30%"><stop offset="0" stop-color="#9fd7ff"/><stop offset="1" stop-color="#1769d1"/></radialGradient>
<radialGradient id="oilDrop" cx="35%" cy="30%"><stop offset="0" stop-color="#ffe19a"/><stop offset="1" stop-color="#d88112"/></radialGradient>
<marker id="arrowBlue" markerWidth="10" markerHeight="10" refX="8" refY="3" orient="auto"><path d="M0,0 L0,6 L9,3 z" fill="#1769d1"/></marker>
<marker id="arrowOrange" markerWidth="10" markerHeight="10" refX="8" refY="3" orient="auto"><path d="M0,0 L0,6 L9,3 z" fill="#d88112"/></marker>
<marker id="arrowDark" markerWidth="10" markerHeight="10" refX="8" refY="3" orient="auto"><path d="M0,0 L0,6 L9,3 z" fill="#111827"/></marker>
</defs><rect width="100%" height="100%" fill="#fbfaf6"/><text x="90" y="88" class="title">Comment un tensioactif</text><text x="90" y="148" class="title">nettoie une salissure grasse</text><text x="170" y="202" class="subtitle">Le nettoyage combine plusieurs effets complémentaires.</text><rect x="60" y="270" width="280" height="235" rx="18" class="box"/><circle cx="92" cy="308" r="23" fill="#0b1d3a"/><text x="84" y="317" font-size="26" font-weight="700" fill="white">1</text><text x="130" y="318" class="h2">Mouillage</text><text x="95" y="467" class="small">L’eau accède mieux à la surface sale.</text><rect x="385" y="270" width="280" height="235" rx="18" class="box"/><circle cx="417" cy="308" r="23" fill="#0b1d3a"/><text x="409" y="317" font-size="26" font-weight="700" fill="white">2</text><text x="455" y="318" class="h2">Décollement</text><text x="420" y="467" class="small">Les tensioactifs fragilisent l’adhérence.</text><rect x="710" y="270" width="230" height="235" rx="18" class="box"/><circle cx="742" cy="308" r="23" fill="#0b1d3a"/><text x="734" y="317" font-size="26" font-weight="700" fill="white">3</text><text x="780" y="318" class="h2">Émulsification</text><text x="745" y="467" class="small">Le gras est divisé en gouttelettes.</text><rect x="60" y="545" width="430" height="240" rx="18" class="box"/><circle cx="92" cy="583" r="23" fill="#0b1d3a"/><text x="84" y="592" font-size="26" font-weight="700" fill="white">4</text><text x="130" y="593" class="h2">Solubilisation micellaire</text><text x="95" y="747" class="small">Des composés gras sont piégés dans les micelles.</text><rect x="525" y="545" width="415" height="240" rx="18" class="box"/><circle cx="557" cy="583" r="23" fill="#0b1d3a"/><text x="549" y="592" font-size="26" font-weight="700" fill="white">5</text><text x="595" y="593" class="h2">Dispersion / rinçage</text><text x="560" y="747" class="small">Les salissures restent dispersées puis évacuées.</text>
<g transform="translate(80 375)"><rect x="0" y="80" width="220" height="28" class="surface"/><path d="M20 80 C60 40 115 80 160 70 C185 65 202 70 220 80" fill="#ffd474" stroke="#d88112" stroke-width="2"/><path d="M10 0 C40 40 10 55 35 80" stroke="#1769d1" stroke-width="3" fill="none" marker-end="url(#arrowBlue)"/><path d="M80 0 C110 40 80 55 105 80" stroke="#1769d1" stroke-width="3" fill="none" marker-end="url(#arrowBlue)"/><g transform="translate(150 75) scale(0.65)"><circle cx="0" cy="0" r="12" fill="url(#blueHead)" stroke="#0b4fa3" stroke-width="2"/><path d="M0 13 C10 28 -10 42 0 57 C10 72 -10 86 0 100" class="tail" stroke-width="3"/></g><g transform="translate(190 75) scale(0.65)"><circle cx="0" cy="0" r="12" fill="url(#blueHead)" stroke="#0b4fa3" stroke-width="2"/><path d="M0 13 C10 28 -10 42 0 57 C10 72 -10 86 0 100" class="tail" stroke-width="3"/></g></g>
<g transform="translate(405 375)"><rect x="0" y="80" width="220" height="28" class="surface"/><path d="M0 80 C50 40 175 40 220 80 Z" fill="#ffd474" stroke="#d88112" stroke-width="2"/><path d="M0 35 C70 10 150 10 220 35 V80 H0Z" fill="#dcefff" opacity=".8"/><g transform="translate(25 70) scale(0.55)"><circle cx="0" cy="0" r="12" fill="url(#blueHead)" stroke="#0b4fa3" stroke-width="2"/><path d="M0 13 C10 28 -10 42 0 57 C10 72 -10 86 0 100" class="tail" stroke-width="3"/></g><g transform="translate(53 70) scale(0.55)"><circle cx="0" cy="0" r="12" fill="url(#blueHead)" stroke="#0b4fa3" stroke-width="2"/><path d="M0 13 C10 28 -10 42 0 57 C10 72 -10 86 0 100" class="tail" stroke-width="3"/></g><g transform="translate(81 70) scale(0.55)"><circle cx="0" cy="0" r="12" fill="url(#blueHead)" stroke="#0b4fa3" stroke-width="2"/><path d="M0 13 C10 28 -10 42 0 57 C10 72 -10 86 0 100" class="tail" stroke-width="3"/></g><g transform="translate(109 70) scale(0.55)"><circle cx="0" cy="0" r="12" fill="url(#blueHead)" stroke="#0b4fa3" stroke-width="2"/><path d="M0 13 C10 28 -10 42 0 57 C10 72 -10 86 0 100" class="tail" stroke-width="3"/></g><g transform="translate(137 70) scale(0.55)"><circle cx="0" cy="0" r="12" fill="url(#blueHead)" stroke="#0b4fa3" stroke-width="2"/><path d="M0 13 C10 28 -10 42 0 57 C10 72 -10 86 0 100" class="tail" stroke-width="3"/></g><g transform="translate(165 70) scale(0.55)"><circle cx="0" cy="0" r="12" fill="url(#blueHead)" stroke="#0b4fa3" stroke-width="2"/><path d="M0 13 C10 28 -10 42 0 57 C10 72 -10 86 0 100" class="tail" stroke-width="3"/></g><g transform="translate(193 70) scale(0.55)"><circle cx="0" cy="0" r="12" fill="url(#blueHead)" stroke="#0b4fa3" stroke-width="2"/><path d="M0 13 C10 28 -10 42 0 57 C10 72 -10 86 0 100" class="tail" stroke-width="3"/></g></g>
<g transform="translate(730 380)"><g><circle cx="40" cy="40" r="10.24" fill="#ffd474" opacity=".95"/><line x1="53.4" y1="40.0" x2="72.0" y2="40.0" stroke="#111827" stroke-width="2.5"/><circle cx="72.0" cy="40.0" r="9" fill="url(#blueHead)" stroke="#0b4fa3" stroke-width="1.5"/><line x1="52.1" y1="45.8" x2="68.8" y2="53.9" stroke="#111827" stroke-width="2.5"/><circle cx="68.8" cy="53.9" r="9" fill="url(#blueHead)" stroke="#0b4fa3" stroke-width="1.5"/><line x1="48.4" y1="50.5" x2="60.0" y2="65.0" stroke="#111827" stroke-width="2.5"/><circle cx="60.0" cy="65.0" r="9" fill="url(#blueHead)" stroke="#0b4fa3" stroke-width="1.5"/><line x1="43.0" y1="53.1" x2="47.1" y2="71.2" stroke="#111827" stroke-width="2.5"/><circle cx="47.1" cy="71.2" r="9" fill="url(#blueHead)" stroke="#0b4fa3" stroke-width="1.5"/><line x1="37.0" y1="53.1" x2="32.9" y2="71.2" stroke="#111827" stroke-width="2.5"/><circle cx="32.9" cy="71.2" r="9" fill="url(#blueHead)" stroke="#0b4fa3" stroke-width="1.5"/><line x1="31.6" y1="50.5" x2="20.0" y2="65.0" stroke="#111827" stroke-width="2.5"/><circle cx="20.0" cy="65.0" r="9" fill="url(#blueHead)" stroke="#0b4fa3" stroke-width="1.5"/><line x1="27.9" y1="45.8" x2="11.2" y2="53.9" stroke="#111827" stroke-width="2.5"/><circle cx="11.2" cy="53.9" r="9" fill="url(#blueHead)" stroke="#0b4fa3" stroke-width="1.5"/><line x1="26.6" y1="40.0" x2="8.0" y2="40.0" stroke="#111827" stroke-width="2.5"/><circle cx="8.0" cy="40.0" r="9" fill="url(#blueHead)" stroke="#0b4fa3" stroke-width="1.5"/><line x1="27.9" y1="34.2" x2="11.2" y2="26.1" stroke="#111827" stroke-width="2.5"/><circle cx="11.2" cy="26.1" r="9" fill="url(#blueHead)" stroke="#0b4fa3" stroke-width="1.5"/><line x1="31.6" y1="29.5" x2="20.0" y2="15.0" stroke="#111827" stroke-width="2.5"/><circle cx="20.0" cy="15.0" r="9" fill="url(#blueHead)" stroke="#0b4fa3" stroke-width="1.5"/><line x1="37.0" y1="26.9" x2="32.9" y2="8.8" stroke="#111827" stroke-width="2.5"/><circle cx="32.9" cy="8.8" r="9" fill="url(#blueHead)" stroke="#0b4fa3" stroke-width="1.5"/><line x1="43.0" y1="26.9" x2="47.1" y2="8.8" stroke="#111827" stroke-width="2.5"/><circle cx="47.1" cy="8.8" r="9" fill="url(#blueHead)" stroke="#0b4fa3" stroke-width="1.5"/><line x1="48.4" y1="29.5" x2="60.0" y2="15.0" stroke="#111827" stroke-width="2.5"/><circle cx="60.0" cy="15.0" r="9" fill="url(#blueHead)" stroke="#0b4fa3" stroke-width="1.5"/><line x1="52.1" y1="34.2" x2="68.8" y2="26.1" stroke="#111827" stroke-width="2.5"/><circle cx="68.8" cy="26.1" r="9" fill="url(#blueHead)" stroke="#0b4fa3" stroke-width="1.5"/></g><g><circle cx="130" cy="55" r="8.0" fill="#ffd474" opacity=".95"/><line x1="140.5" y1="55.0" x2="155.0" y2="55.0" stroke="#111827" stroke-width="2.5"/><circle cx="155.0" cy="55.0" r="9" fill="url(#blueHead)" stroke="#0b4fa3" stroke-width="1.5"/><line x1="139.5" y1="59.6" x2="152.5" y2="65.8" stroke="#111827" stroke-width="2.5"/><circle cx="152.5" cy="65.8" r="9" fill="url(#blueHead)" stroke="#0b4fa3" stroke-width="1.5"/><line x1="136.5" y1="63.2" x2="145.6" y2="74.5" stroke="#111827" stroke-width="2.5"/><circle cx="145.6" cy="74.5" r="9" fill="url(#blueHead)" stroke="#0b4fa3" stroke-width="1.5"/><line x1="132.3" y1="65.2" x2="135.6" y2="79.4" stroke="#111827" stroke-width="2.5"/><circle cx="135.6" cy="79.4" r="9" fill="url(#blueHead)" stroke="#0b4fa3" stroke-width="1.5"/><line x1="127.7" y1="65.2" x2="124.4" y2="79.4" stroke="#111827" stroke-width="2.5"/><circle cx="124.4" cy="79.4" r="9" fill="url(#blueHead)" stroke="#0b4fa3" stroke-width="1.5"/><line x1="123.5" y1="63.2" x2="114.4" y2="74.5" stroke="#111827" stroke-width="2.5"/><circle cx="114.4" cy="74.5" r="9" fill="url(#blueHead)" stroke="#0b4fa3" stroke-width="1.5"/><line x1="120.5" y1="59.6" x2="107.5" y2="65.8" stroke="#111827" stroke-width="2.5"/><circle cx="107.5" cy="65.8" r="9" fill="url(#blueHead)" stroke="#0b4fa3" stroke-width="1.5"/><line x1="119.5" y1="55.0" x2="105.0" y2="55.0" stroke="#111827" stroke-width="2.5"/><circle cx="105.0" cy="55.0" r="9" fill="url(#blueHead)" stroke="#0b4fa3" stroke-width="1.5"/><line x1="120.5" y1="50.4" x2="107.5" y2="44.2" stroke="#111827" stroke-width="2.5"/><circle cx="107.5" cy="44.2" r="9" fill="url(#blueHead)" stroke="#0b4fa3" stroke-width="1.5"/><line x1="123.5" y1="46.8" x2="114.4" y2="35.5" stroke="#111827" stroke-width="2.5"/><circle cx="114.4" cy="35.5" r="9" fill="url(#blueHead)" stroke="#0b4fa3" stroke-width="1.5"/><line x1="127.7" y1="44.8" x2="124.4" y2="30.6" stroke="#111827" stroke-width="2.5"/><circle cx="124.4" cy="30.6" r="9" fill="url(#blueHead)" stroke="#0b4fa3" stroke-width="1.5"/><line x1="132.3" y1="44.8" x2="135.6" y2="30.6" stroke="#111827" stroke-width="2.5"/><circle cx="135.6" cy="30.6" r="9" fill="url(#blueHead)" stroke="#0b4fa3" stroke-width="1.5"/><line x1="136.5" y1="46.8" x2="145.6" y2="35.5" stroke="#111827" stroke-width="2.5"/><circle cx="145.6" cy="35.5" r="9" fill="url(#blueHead)" stroke="#0b4fa3" stroke-width="1.5"/><line x1="139.5" y1="50.4" x2="152.5" y2="44.2" stroke="#111827" stroke-width="2.5"/><circle cx="152.5" cy="44.2" r="9" fill="url(#blueHead)" stroke="#0b4fa3" stroke-width="1.5"/></g><g><circle cx="85" cy="130" r="7.04" fill="#ffd474" opacity=".95"/><line x1="94.2" y1="130.0" x2="107.0" y2="130.0" stroke="#111827" stroke-width="2.5"/><circle cx="107.0" cy="130.0" r="9" fill="url(#blueHead)" stroke="#0b4fa3" stroke-width="1.5"/><line x1="93.3" y1="134.0" x2="104.8" y2="139.5" stroke="#111827" stroke-width="2.5"/><circle cx="104.8" cy="139.5" r="9" fill="url(#blueHead)" stroke="#0b4fa3" stroke-width="1.5"/><line x1="90.8" y1="137.2" x2="98.7" y2="147.2" stroke="#111827" stroke-width="2.5"/><circle cx="98.7" cy="147.2" r="9" fill="url(#blueHead)" stroke="#0b4fa3" stroke-width="1.5"/><line x1="87.1" y1="139.0" x2="89.9" y2="151.4" stroke="#111827" stroke-width="2.5"/><circle cx="89.9" cy="151.4" r="9" fill="url(#blueHead)" stroke="#0b4fa3" stroke-width="1.5"/><line x1="82.9" y1="139.0" x2="80.1" y2="151.4" stroke="#111827" stroke-width="2.5"/><circle cx="80.1" cy="151.4" r="9" fill="url(#blueHead)" stroke="#0b4fa3" stroke-width="1.5"/><line x1="79.2" y1="137.2" x2="71.3" y2="147.2" stroke="#111827" stroke-width="2.5"/><circle cx="71.3" cy="147.2" r="9" fill="url(#blueHead)" stroke="#0b4fa3" stroke-width="1.5"/><line x1="76.7" y1="134.0" x2="65.2" y2="139.5" stroke="#111827" stroke-width="2.5"/><circle cx="65.2" cy="139.5" r="9" fill="url(#blueHead)" stroke="#0b4fa3" stroke-width="1.5"/><line x1="75.8" y1="130.0" x2="63.0" y2="130.0" stroke="#111827" stroke-width="2.5"/><circle cx="63.0" cy="130.0" r="9" fill="url(#blueHead)" stroke="#0b4fa3" stroke-width="1.5"/><line x1="76.7" y1="126.0" x2="65.2" y2="120.5" stroke="#111827" stroke-width="2.5"/><circle cx="65.2" cy="120.5" r="9" fill="url(#blueHead)" stroke="#0b4fa3" stroke-width="1.5"/><line x1="79.2" y1="122.8" x2="71.3" y2="112.8" stroke="#111827" stroke-width="2.5"/><circle cx="71.3" cy="112.8" r="9" fill="url(#blueHead)" stroke="#0b4fa3" stroke-width="1.5"/><line x1="82.9" y1="121.0" x2="80.1" y2="108.6" stroke="#111827" stroke-width="2.5"/><circle cx="80.1" cy="108.6" r="9" fill="url(#blueHead)" stroke="#0b4fa3" stroke-width="1.5"/><line x1="87.1" y1="121.0" x2="89.9" y2="108.6" stroke="#111827" stroke-width="2.5"/><circle cx="89.9" cy="108.6" r="9" fill="url(#blueHead)" stroke="#0b4fa3" stroke-width="1.5"/><line x1="90.8" y1="122.8" x2="98.7" y2="112.8" stroke="#111827" stroke-width="2.5"/><circle cx="98.7" cy="112.8" r="9" fill="url(#blueHead)" stroke="#0b4fa3" stroke-width="1.5"/><line x1="93.3" y1="126.0" x2="104.8" y2="120.5" stroke="#111827" stroke-width="2.5"/><circle cx="104.8" cy="120.5" r="9" fill="url(#blueHead)" stroke="#0b4fa3" stroke-width="1.5"/></g><rect x="0" y="165" width="185" height="20" class="surface"/><path d="M10 162 C25 152 40 162 55 158" stroke="#d88112" stroke-width="4" fill="none"/></g>
<g transform="translate(130 635)"><g><circle cx="90" cy="65" r="17.6" fill="#ffd474" opacity=".95"/><line x1="113.1" y1="65.0" x2="145.0" y2="65.0" stroke="#111827" stroke-width="2.5"/><circle cx="145.0" cy="65.0" r="9" fill="url(#blueHead)" stroke="#0b4fa3" stroke-width="1.5"/><line x1="110.8" y1="75.0" x2="139.6" y2="88.9" stroke="#111827" stroke-width="2.5"/><circle cx="139.6" cy="88.9" r="9" fill="url(#blueHead)" stroke="#0b4fa3" stroke-width="1.5"/><line x1="104.4" y1="83.1" x2="124.3" y2="108.0" stroke="#111827" stroke-width="2.5"/><circle cx="124.3" cy="108.0" r="9" fill="url(#blueHead)" stroke="#0b4fa3" stroke-width="1.5"/><line x1="95.1" y1="87.5" x2="102.2" y2="118.6" stroke="#111827" stroke-width="2.5"/><circle cx="102.2" cy="118.6" r="9" fill="url(#blueHead)" stroke="#0b4fa3" stroke-width="1.5"/><line x1="84.9" y1="87.5" x2="77.8" y2="118.6" stroke="#111827" stroke-width="2.5"/><circle cx="77.8" cy="118.6" r="9" fill="url(#blueHead)" stroke="#0b4fa3" stroke-width="1.5"/><line x1="75.6" y1="83.1" x2="55.7" y2="108.0" stroke="#111827" stroke-width="2.5"/><circle cx="55.7" cy="108.0" r="9" fill="url(#blueHead)" stroke="#0b4fa3" stroke-width="1.5"/><line x1="69.2" y1="75.0" x2="40.4" y2="88.9" stroke="#111827" stroke-width="2.5"/><circle cx="40.4" cy="88.9" r="9" fill="url(#blueHead)" stroke="#0b4fa3" stroke-width="1.5"/><line x1="66.9" y1="65.0" x2="35.0" y2="65.0" stroke="#111827" stroke-width="2.5"/><circle cx="35.0" cy="65.0" r="9" fill="url(#blueHead)" stroke="#0b4fa3" stroke-width="1.5"/><line x1="69.2" y1="55.0" x2="40.4" y2="41.1" stroke="#111827" stroke-width="2.5"/><circle cx="40.4" cy="41.1" r="9" fill="url(#blueHead)" stroke="#0b4fa3" stroke-width="1.5"/><line x1="75.6" y1="46.9" x2="55.7" y2="22.0" stroke="#111827" stroke-width="2.5"/><circle cx="55.7" cy="22.0" r="9" fill="url(#blueHead)" stroke="#0b4fa3" stroke-width="1.5"/><line x1="84.9" y1="42.5" x2="77.8" y2="11.4" stroke="#111827" stroke-width="2.5"/><circle cx="77.8" cy="11.4" r="9" fill="url(#blueHead)" stroke="#0b4fa3" stroke-width="1.5"/><line x1="95.1" y1="42.5" x2="102.2" y2="11.4" stroke="#111827" stroke-width="2.5"/><circle cx="102.2" cy="11.4" r="9" fill="url(#blueHead)" stroke="#0b4fa3" stroke-width="1.5"/><line x1="104.4" y1="46.9" x2="124.3" y2="22.0" stroke="#111827" stroke-width="2.5"/><circle cx="124.3" cy="22.0" r="9" fill="url(#blueHead)" stroke="#0b4fa3" stroke-width="1.5"/><line x1="110.8" y1="55.0" x2="139.6" y2="41.1" stroke="#111827" stroke-width="2.5"/><circle cx="139.6" cy="41.1" r="9" fill="url(#blueHead)" stroke="#0b4fa3" stroke-width="1.5"/></g><g><circle cx="240" cy="95" r="13.44" fill="#ffd474" opacity=".95"/><line x1="257.6" y1="95.0" x2="282.0" y2="95.0" stroke="#111827" stroke-width="2.5"/><circle cx="282.0" cy="95.0" r="9" fill="url(#blueHead)" stroke="#0b4fa3" stroke-width="1.5"/><line x1="255.9" y1="102.7" x2="277.8" y2="113.2" stroke="#111827" stroke-width="2.5"/><circle cx="277.8" cy="113.2" r="9" fill="url(#blueHead)" stroke="#0b4fa3" stroke-width="1.5"/><line x1="251.0" y1="108.8" x2="266.2" y2="127.8" stroke="#111827" stroke-width="2.5"/><circle cx="266.2" cy="127.8" r="9" fill="url(#blueHead)" stroke="#0b4fa3" stroke-width="1.5"/><line x1="243.9" y1="112.2" x2="249.3" y2="135.9" stroke="#111827" stroke-width="2.5"/><circle cx="249.3" cy="135.9" r="9" fill="url(#blueHead)" stroke="#0b4fa3" stroke-width="1.5"/><line x1="236.1" y1="112.2" x2="230.7" y2="135.9" stroke="#111827" stroke-width="2.5"/><circle cx="230.7" cy="135.9" r="9" fill="url(#blueHead)" stroke="#0b4fa3" stroke-width="1.5"/><line x1="229.0" y1="108.8" x2="213.8" y2="127.8" stroke="#111827" stroke-width="2.5"/><circle cx="213.8" cy="127.8" r="9" fill="url(#blueHead)" stroke="#0b4fa3" stroke-width="1.5"/><line x1="224.1" y1="102.7" x2="202.2" y2="113.2" stroke="#111827" stroke-width="2.5"/><circle cx="202.2" cy="113.2" r="9" fill="url(#blueHead)" stroke="#0b4fa3" stroke-width="1.5"/><line x1="222.4" y1="95.0" x2="198.0" y2="95.0" stroke="#111827" stroke-width="2.5"/><circle cx="198.0" cy="95.0" r="9" fill="url(#blueHead)" stroke="#0b4fa3" stroke-width="1.5"/><line x1="224.1" y1="87.3" x2="202.2" y2="76.8" stroke="#111827" stroke-width="2.5"/><circle cx="202.2" cy="76.8" r="9" fill="url(#blueHead)" stroke="#0b4fa3" stroke-width="1.5"/><line x1="229.0" y1="81.2" x2="213.8" y2="62.2" stroke="#111827" stroke-width="2.5"/><circle cx="213.8" cy="62.2" r="9" fill="url(#blueHead)" stroke="#0b4fa3" stroke-width="1.5"/><line x1="236.1" y1="77.8" x2="230.7" y2="54.1" stroke="#111827" stroke-width="2.5"/><circle cx="230.7" cy="54.1" r="9" fill="url(#blueHead)" stroke="#0b4fa3" stroke-width="1.5"/><line x1="243.9" y1="77.8" x2="249.3" y2="54.1" stroke="#111827" stroke-width="2.5"/><circle cx="249.3" cy="54.1" r="9" fill="url(#blueHead)" stroke="#0b4fa3" stroke-width="1.5"/><line x1="251.0" y1="81.2" x2="266.2" y2="62.2" stroke="#111827" stroke-width="2.5"/><circle cx="266.2" cy="62.2" r="9" fill="url(#blueHead)" stroke="#0b4fa3" stroke-width="1.5"/><line x1="255.9" y1="87.3" x2="277.8" y2="76.8" stroke="#111827" stroke-width="2.5"/><circle cx="277.8" cy="76.8" r="9" fill="url(#blueHead)" stroke="#0b4fa3" stroke-width="1.5"/></g><g transform="translate(360 55) scale(0.55)"><circle cx="0" cy="0" r="12" fill="url(#blueHead)" stroke="#0b4fa3" stroke-width="2"/><path d="M0 13 C10 28 -10 42 0 57 C10 72 -10 86 0 100" class="tail" stroke-width="3"/></g></g>
<g transform="translate(555 625)"><g><circle cx="70" cy="65" r="12.16" fill="#ffd474" opacity=".95"/><line x1="86.0" y1="65.0" x2="108.0" y2="65.0" stroke="#111827" stroke-width="2.5"/><circle cx="108.0" cy="65.0" r="9" fill="url(#blueHead)" stroke="#0b4fa3" stroke-width="1.5"/><line x1="84.4" y1="71.9" x2="104.2" y2="81.5" stroke="#111827" stroke-width="2.5"/><circle cx="104.2" cy="81.5" r="9" fill="url(#blueHead)" stroke="#0b4fa3" stroke-width="1.5"/><line x1="80.0" y1="77.5" x2="93.7" y2="94.7" stroke="#111827" stroke-width="2.5"/><circle cx="93.7" cy="94.7" r="9" fill="url(#blueHead)" stroke="#0b4fa3" stroke-width="1.5"/><line x1="73.6" y1="80.6" x2="78.5" y2="102.0" stroke="#111827" stroke-width="2.5"/><circle cx="78.5" cy="102.0" r="9" fill="url(#blueHead)" stroke="#0b4fa3" stroke-width="1.5"/><line x1="66.4" y1="80.6" x2="61.5" y2="102.0" stroke="#111827" stroke-width="2.5"/><circle cx="61.5" cy="102.0" r="9" fill="url(#blueHead)" stroke="#0b4fa3" stroke-width="1.5"/><line x1="60.0" y1="77.5" x2="46.3" y2="94.7" stroke="#111827" stroke-width="2.5"/><circle cx="46.3" cy="94.7" r="9" fill="url(#blueHead)" stroke="#0b4fa3" stroke-width="1.5"/><line x1="55.6" y1="71.9" x2="35.8" y2="81.5" stroke="#111827" stroke-width="2.5"/><circle cx="35.8" cy="81.5" r="9" fill="url(#blueHead)" stroke="#0b4fa3" stroke-width="1.5"/><line x1="54.0" y1="65.0" x2="32.0" y2="65.0" stroke="#111827" stroke-width="2.5"/><circle cx="32.0" cy="65.0" r="9" fill="url(#blueHead)" stroke="#0b4fa3" stroke-width="1.5"/><line x1="55.6" y1="58.1" x2="35.8" y2="48.5" stroke="#111827" stroke-width="2.5"/><circle cx="35.8" cy="48.5" r="9" fill="url(#blueHead)" stroke="#0b4fa3" stroke-width="1.5"/><line x1="60.0" y1="52.5" x2="46.3" y2="35.3" stroke="#111827" stroke-width="2.5"/><circle cx="46.3" cy="35.3" r="9" fill="url(#blueHead)" stroke="#0b4fa3" stroke-width="1.5"/><line x1="66.4" y1="49.4" x2="61.5" y2="28.0" stroke="#111827" stroke-width="2.5"/><circle cx="61.5" cy="28.0" r="9" fill="url(#blueHead)" stroke="#0b4fa3" stroke-width="1.5"/><line x1="73.6" y1="49.4" x2="78.5" y2="28.0" stroke="#111827" stroke-width="2.5"/><circle cx="78.5" cy="28.0" r="9" fill="url(#blueHead)" stroke="#0b4fa3" stroke-width="1.5"/><line x1="80.0" y1="52.5" x2="93.7" y2="35.3" stroke="#111827" stroke-width="2.5"/><circle cx="93.7" cy="35.3" r="9" fill="url(#blueHead)" stroke="#0b4fa3" stroke-width="1.5"/><line x1="84.4" y1="58.1" x2="104.2" y2="48.5" stroke="#111827" stroke-width="2.5"/><circle cx="104.2" cy="48.5" r="9" fill="url(#blueHead)" stroke="#0b4fa3" stroke-width="1.5"/></g><g><circle cx="180" cy="90" r="16.0" fill="#ffd474" opacity=".95"/><line x1="201.0" y1="90.0" x2="230.0" y2="90.0" stroke="#111827" stroke-width="2.5"/><circle cx="230.0" cy="90.0" r="9" fill="url(#blueHead)" stroke="#0b4fa3" stroke-width="1.5"/><line x1="198.9" y1="99.1" x2="225.0" y2="111.7" stroke="#111827" stroke-width="2.5"/><circle cx="225.0" cy="111.7" r="9" fill="url(#blueHead)" stroke="#0b4fa3" stroke-width="1.5"/><line x1="193.1" y1="106.4" x2="211.2" y2="129.1" stroke="#111827" stroke-width="2.5"/><circle cx="211.2" cy="129.1" r="9" fill="url(#blueHead)" stroke="#0b4fa3" stroke-width="1.5"/><line x1="184.7" y1="110.5" x2="191.1" y2="138.7" stroke="#111827" stroke-width="2.5"/><circle cx="191.1" cy="138.7" r="9" fill="url(#blueHead)" stroke="#0b4fa3" stroke-width="1.5"/><line x1="175.3" y1="110.5" x2="168.9" y2="138.7" stroke="#111827" stroke-width="2.5"/><circle cx="168.9" cy="138.7" r="9" fill="url(#blueHead)" stroke="#0b4fa3" stroke-width="1.5"/><line x1="166.9" y1="106.4" x2="148.8" y2="129.1" stroke="#111827" stroke-width="2.5"/><circle cx="148.8" cy="129.1" r="9" fill="url(#blueHead)" stroke="#0b4fa3" stroke-width="1.5"/><line x1="161.1" y1="99.1" x2="135.0" y2="111.7" stroke="#111827" stroke-width="2.5"/><circle cx="135.0" cy="111.7" r="9" fill="url(#blueHead)" stroke="#0b4fa3" stroke-width="1.5"/><line x1="159.0" y1="90.0" x2="130.0" y2="90.0" stroke="#111827" stroke-width="2.5"/><circle cx="130.0" cy="90.0" r="9" fill="url(#blueHead)" stroke="#0b4fa3" stroke-width="1.5"/><line x1="161.1" y1="80.9" x2="135.0" y2="68.3" stroke="#111827" stroke-width="2.5"/><circle cx="135.0" cy="68.3" r="9" fill="url(#blueHead)" stroke="#0b4fa3" stroke-width="1.5"/><line x1="166.9" y1="73.6" x2="148.8" y2="50.9" stroke="#111827" stroke-width="2.5"/><circle cx="148.8" cy="50.9" r="9" fill="url(#blueHead)" stroke="#0b4fa3" stroke-width="1.5"/><line x1="175.3" y1="69.5" x2="168.9" y2="41.3" stroke="#111827" stroke-width="2.5"/><circle cx="168.9" cy="41.3" r="9" fill="url(#blueHead)" stroke="#0b4fa3" stroke-width="1.5"/><line x1="184.7" y1="69.5" x2="191.1" y2="41.3" stroke="#111827" stroke-width="2.5"/><circle cx="191.1" cy="41.3" r="9" fill="url(#blueHead)" stroke="#0b4fa3" stroke-width="1.5"/><line x1="193.1" y1="73.6" x2="211.2" y2="50.9" stroke="#111827" stroke-width="2.5"/><circle cx="211.2" cy="50.9" r="9" fill="url(#blueHead)" stroke="#0b4fa3" stroke-width="1.5"/><line x1="198.9" y1="80.9" x2="225.0" y2="68.3" stroke="#111827" stroke-width="2.5"/><circle cx="225.0" cy="68.3" r="9" fill="url(#blueHead)" stroke="#0b4fa3" stroke-width="1.5"/></g><g><circle cx="300" cy="55" r="11.200000000000001" fill="#ffd474" opacity=".95"/><line x1="314.7" y1="55.0" x2="335.0" y2="55.0" stroke="#111827" stroke-width="2.5"/><circle cx="335.0" cy="55.0" r="9" fill="url(#blueHead)" stroke="#0b4fa3" stroke-width="1.5"/><line x1="313.2" y1="61.4" x2="331.5" y2="70.2" stroke="#111827" stroke-width="2.5"/><circle cx="331.5" cy="70.2" r="9" fill="url(#blueHead)" stroke="#0b4fa3" stroke-width="1.5"/><line x1="309.2" y1="66.5" x2="321.8" y2="82.4" stroke="#111827" stroke-width="2.5"/><circle cx="321.8" cy="82.4" r="9" fill="url(#blueHead)" stroke="#0b4fa3" stroke-width="1.5"/><line x1="303.3" y1="69.3" x2="307.8" y2="89.1" stroke="#111827" stroke-width="2.5"/><circle cx="307.8" cy="89.1" r="9" fill="url(#blueHead)" stroke="#0b4fa3" stroke-width="1.5"/><line x1="296.7" y1="69.3" x2="292.2" y2="89.1" stroke="#111827" stroke-width="2.5"/><circle cx="292.2" cy="89.1" r="9" fill="url(#blueHead)" stroke="#0b4fa3" stroke-width="1.5"/><line x1="290.8" y1="66.5" x2="278.2" y2="82.4" stroke="#111827" stroke-width="2.5"/><circle cx="278.2" cy="82.4" r="9" fill="url(#blueHead)" stroke="#0b4fa3" stroke-width="1.5"/><line x1="286.8" y1="61.4" x2="268.5" y2="70.2" stroke="#111827" stroke-width="2.5"/><circle cx="268.5" cy="70.2" r="9" fill="url(#blueHead)" stroke="#0b4fa3" stroke-width="1.5"/><line x1="285.3" y1="55.0" x2="265.0" y2="55.0" stroke="#111827" stroke-width="2.5"/><circle cx="265.0" cy="55.0" r="9" fill="url(#blueHead)" stroke="#0b4fa3" stroke-width="1.5"/><line x1="286.8" y1="48.6" x2="268.5" y2="39.8" stroke="#111827" stroke-width="2.5"/><circle cx="268.5" cy="39.8" r="9" fill="url(#blueHead)" stroke="#0b4fa3" stroke-width="1.5"/><line x1="290.8" y1="43.5" x2="278.2" y2="27.6" stroke="#111827" stroke-width="2.5"/><circle cx="278.2" cy="27.6" r="9" fill="url(#blueHead)" stroke="#0b4fa3" stroke-width="1.5"/><line x1="296.7" y1="40.7" x2="292.2" y2="20.9" stroke="#111827" stroke-width="2.5"/><circle cx="292.2" cy="20.9" r="9" fill="url(#blueHead)" stroke="#0b4fa3" stroke-width="1.5"/><line x1="303.3" y1="40.7" x2="307.8" y2="20.9" stroke="#111827" stroke-width="2.5"/><circle cx="307.8" cy="20.9" r="9" fill="url(#blueHead)" stroke="#0b4fa3" stroke-width="1.5"/><line x1="309.2" y1="43.5" x2="321.8" y2="27.6" stroke="#111827" stroke-width="2.5"/><circle cx="321.8" cy="27.6" r="9" fill="url(#blueHead)" stroke="#0b4fa3" stroke-width="1.5"/><line x1="313.2" y1="48.6" x2="331.5" y2="39.8" stroke="#111827" stroke-width="2.5"/><circle cx="331.5" cy="39.8" r="9" fill="url(#blueHead)" stroke="#0b4fa3" stroke-width="1.5"/></g><g transform="translate(245 150) scale(0.55)"><circle cx="0" cy="0" r="12" fill="url(#blueHead)" stroke="#0b4fa3" stroke-width="2"/><path d="M0 13 C10 28 -10 42 0 57 C10 72 -10 86 0 100" class="tail" stroke-width="3"/></g><path d="M265 145 H360" stroke="#1769d1" stroke-width="14" marker-end="url(#arrowBlue)"/><text x="275" y="130" class="label blue">RINÇAGE</text><rect x="0" y="170" width="350" height="22" class="surface"/></g>
<rect x="70" y="845" width="860" height="100" rx="18" class="info"/><circle cx="115" cy="895" r="26" fill="#eaf1ff" stroke="#1769d1" stroke-width="2"/><text x="106" y="908" font-size="36" font-weight="700" fill="#1769d1">i</text><text x="165" y="885" class="small">Le lavage ne se résume pas à une seule étape :</text><text x="165" y="915" class="small">mouiller, décoller, fragmenter, disperser et rincer sont tous importants.</text></svg>