<svg xmlns="http://www.w3.org/2000/svg" width="1200" height="940" viewBox="0 0 1200 940" role="img" aria-labelledby="title desc">
<title id="title">Eau douce vs eau dure : pourquoi le savon dépose ?</title><desc id="desc">Schéma scientifique pédagogique.</desc>
<defs>
<style>
.title{font:700 46px Roboto,Arial,sans-serif;fill:#0b1d3a;letter-spacing:-.8px}
.subtitle{font:400 21px Roboto,Arial,sans-serif;fill:#2f3a49}
.h2{font:700 30px Roboto,Arial,sans-serif;fill:#0b1d3a}
.label{font:600 20px Roboto,Arial,sans-serif;fill:#0b1d3a}
.small{font:400 17px Roboto,Arial,sans-serif;fill:#273449}
.tiny{font:400 14px Roboto,Arial,sans-serif;fill:#4b5563}
.mono{font:500 19px Roboto,Arial,sans-serif;fill:#111827}
.box{fill:#fff;stroke:#d7dce3;stroke-width:2}
.info{fill:#f7fbff;stroke:#1769d1;stroke-width:2}
.warn{fill:#fff9ed;stroke:#d88112;stroke-width:2}
.blue{fill:#1769d1}.orange{fill:#d88112}.green{fill:#237047}.purple{fill:#6a3aa8}.red{fill:#b84b3f}.muted{fill:#667085}
.tail{fill:none;stroke:#111827;stroke-width:4;stroke-linecap:round}
.line{stroke:#d7dce3;stroke-width:2}
</style>
<radialGradient id="headBlue" cx="35%" cy="30%"><stop offset="0" stop-color="#9fd7ff"/><stop offset="1" stop-color="#1769d1"/></radialGradient>
<radialGradient id="headOrange" cx="35%" cy="30%"><stop offset="0" stop-color="#ffe19a"/><stop offset="1" stop-color="#d88112"/></radialGradient>
<marker id="arrow" markerWidth="10" markerHeight="10" refX="8" refY="3" orient="auto"><path d="M0,0 L0,6 L9,3 z" fill="#111827"/></marker>
<marker id="arrowBlue" markerWidth="10" markerHeight="10" refX="8" refY="3" orient="auto"><path d="M0,0 L0,6 L9,3 z" fill="#1769d1"/></marker>
<marker id="arrowOrange" markerWidth="10" markerHeight="10" refX="8" refY="3" orient="auto"><path d="M0,0 L0,6 L9,3 z" fill="#d88112"/></marker>
</defs>
<rect width="100%" height="100%" fill="#fbfaf6"/>
<text x="600.0" y="72" text-anchor="middle" class="title">Eau douce vs eau dure : pourquoi le savon dépose ?</text>
<text x="600.0" y="112" text-anchor="middle" class="subtitle">Le calcium capture deux carboxylates et forme un sel insoluble.</text>

<rect x="70" y="190" width="500" height="510" rx="24" fill="#f7fbff" stroke="#1769d1" stroke-width="2"/>
<text x="320" y="250" text-anchor="middle" class="h2 blue">Eau douce</text>
<circle cx="150" cy="350" r="7.56" fill="url(#headBlue)" stroke="#0b4fa3" stroke-width="0.84"/><path d="M160.08 350 C175.2 340.76 188.64 359.24 203.76 350 S229.8 340.76 244.07999999999998 350" class="tail" stroke-width="1.68"/><circle cx="230" cy="420" r="7.56" fill="url(#headBlue)" stroke="#0b4fa3" stroke-width="0.84"/><path d="M240.08 420 C255.2 410.76 268.64 429.24 283.76 420 S309.8 410.76 324.08 420" class="tail" stroke-width="1.68"/><circle cx="310" cy="350" r="7.56" fill="url(#headBlue)" stroke="#0b4fa3" stroke-width="0.84"/><path d="M320.08 350 C335.2 340.76 348.64 359.24 363.76 350 S389.8 340.76 404.08 350" class="tail" stroke-width="1.68"/><circle cx="390" cy="420" r="7.56" fill="url(#headBlue)" stroke="#0b4fa3" stroke-width="0.84"/><path d="M400.08 420 C415.2 410.76 428.64 429.24 443.76 420 S469.8 410.76 484.08 420" class="tail" stroke-width="1.68"/><g transform="translate(250 540) scale(.72)"><circle cx="0" cy="0" r="27.4" fill="#ffd474" opacity=".95"/><line x1="30.2" y1="0.0" x2="72.0" y2="0.0" stroke="#111827" stroke-width="3"/><circle cx="72.0" cy="0.0" r="10" fill="url(#headBlue)" stroke="#0b4fa3" stroke-width="1.5"/><line x1="27.6" y1="12.3" x2="65.8" y2="29.3" stroke="#111827" stroke-width="3"/><circle cx="65.8" cy="29.3" r="10" fill="url(#headBlue)" stroke="#0b4fa3" stroke-width="1.5"/><line x1="20.2" y1="22.5" x2="48.2" y2="53.5" stroke="#111827" stroke-width="3"/><circle cx="48.2" cy="53.5" r="10" fill="url(#headBlue)" stroke="#0b4fa3" stroke-width="1.5"/><line x1="9.3" y1="28.8" x2="22.2" y2="68.5" stroke="#111827" stroke-width="3"/><circle cx="22.2" cy="68.5" r="10" fill="url(#headBlue)" stroke="#0b4fa3" stroke-width="1.5"/><line x1="-3.2" y1="30.1" x2="-7.5" y2="71.6" stroke="#111827" stroke-width="3"/><circle cx="-7.5" cy="71.6" r="10" fill="url(#headBlue)" stroke="#0b4fa3" stroke-width="1.5"/><line x1="-15.1" y1="26.2" x2="-36.0" y2="62.4" stroke="#111827" stroke-width="3"/><circle cx="-36.0" cy="62.4" r="10" fill="url(#headBlue)" stroke="#0b4fa3" stroke-width="1.5"/><line x1="-24.5" y1="17.8" x2="-58.2" y2="42.3" stroke="#111827" stroke-width="3"/><circle cx="-58.2" cy="42.3" r="10" fill="url(#headBlue)" stroke="#0b4fa3" stroke-width="1.5"/><line x1="-29.6" y1="6.3" x2="-70.4" y2="15.0" stroke="#111827" stroke-width="3"/><circle cx="-70.4" cy="15.0" r="10" fill="url(#headBlue)" stroke="#0b4fa3" stroke-width="1.5"/><line x1="-29.6" y1="-6.3" x2="-70.4" y2="-15.0" stroke="#111827" stroke-width="3"/><circle cx="-70.4" cy="-15.0" r="10" fill="url(#headBlue)" stroke="#0b4fa3" stroke-width="1.5"/><line x1="-24.5" y1="-17.8" x2="-58.2" y2="-42.3" stroke="#111827" stroke-width="3"/><circle cx="-58.2" cy="-42.3" r="10" fill="url(#headBlue)" stroke="#0b4fa3" stroke-width="1.5"/><line x1="-15.1" y1="-26.2" x2="-36.0" y2="-62.4" stroke="#111827" stroke-width="3"/><circle cx="-36.0" cy="-62.4" r="10" fill="url(#headBlue)" stroke="#0b4fa3" stroke-width="1.5"/><line x1="-3.2" y1="-30.1" x2="-7.5" y2="-71.6" stroke="#111827" stroke-width="3"/><circle cx="-7.5" cy="-71.6" r="10" fill="url(#headBlue)" stroke="#0b4fa3" stroke-width="1.5"/><line x1="9.3" y1="-28.8" x2="22.2" y2="-68.5" stroke="#111827" stroke-width="3"/><circle cx="22.2" cy="-68.5" r="10" fill="url(#headBlue)" stroke="#0b4fa3" stroke-width="1.5"/><line x1="20.2" y1="-22.5" x2="48.2" y2="-53.5" stroke="#111827" stroke-width="3"/><circle cx="48.2" cy="-53.5" r="10" fill="url(#headBlue)" stroke="#0b4fa3" stroke-width="1.5"/><line x1="27.6" y1="-12.3" x2="65.8" y2="-29.3" stroke="#111827" stroke-width="3"/><circle cx="65.8" cy="-29.3" r="10" fill="url(#headBlue)" stroke="#0b4fa3" stroke-width="1.5"/></g><g transform="translate(430 465) scale(.55)"><circle cx="0" cy="0" r="27.4" fill="#ffd474" opacity=".95"/><line x1="30.2" y1="0.0" x2="72.0" y2="0.0" stroke="#111827" stroke-width="3"/><circle cx="72.0" cy="0.0" r="10" fill="url(#headBlue)" stroke="#0b4fa3" stroke-width="1.5"/><line x1="27.2" y1="13.1" x2="64.9" y2="31.2" stroke="#111827" stroke-width="3"/><circle cx="64.9" cy="31.2" r="10" fill="url(#headBlue)" stroke="#0b4fa3" stroke-width="1.5"/><line x1="18.9" y1="23.6" x2="44.9" y2="56.3" stroke="#111827" stroke-width="3"/><circle cx="44.9" cy="56.3" r="10" fill="url(#headBlue)" stroke="#0b4fa3" stroke-width="1.5"/><line x1="6.7" y1="29.5" x2="16.0" y2="70.2" stroke="#111827" stroke-width="3"/><circle cx="16.0" cy="70.2" r="10" fill="url(#headBlue)" stroke="#0b4fa3" stroke-width="1.5"/><line x1="-6.7" y1="29.5" x2="-16.0" y2="70.2" stroke="#111827" stroke-width="3"/><circle cx="-16.0" cy="70.2" r="10" fill="url(#headBlue)" stroke="#0b4fa3" stroke-width="1.5"/><line x1="-18.9" y1="23.6" x2="-44.9" y2="56.3" stroke="#111827" stroke-width="3"/><circle cx="-44.9" cy="56.3" r="10" fill="url(#headBlue)" stroke="#0b4fa3" stroke-width="1.5"/><line x1="-27.2" y1="13.1" x2="-64.9" y2="31.2" stroke="#111827" stroke-width="3"/><circle cx="-64.9" cy="31.2" r="10" fill="url(#headBlue)" stroke="#0b4fa3" stroke-width="1.5"/><line x1="-30.2" y1="0.0" x2="-72.0" y2="0.0" stroke="#111827" stroke-width="3"/><circle cx="-72.0" cy="0.0" r="10" fill="url(#headBlue)" stroke="#0b4fa3" stroke-width="1.5"/><line x1="-27.2" y1="-13.1" x2="-64.9" y2="-31.2" stroke="#111827" stroke-width="3"/><circle cx="-64.9" cy="-31.2" r="10" fill="url(#headBlue)" stroke="#0b4fa3" stroke-width="1.5"/><line x1="-18.9" y1="-23.6" x2="-44.9" y2="-56.3" stroke="#111827" stroke-width="3"/><circle cx="-44.9" cy="-56.3" r="10" fill="url(#headBlue)" stroke="#0b4fa3" stroke-width="1.5"/><line x1="-6.7" y1="-29.5" x2="-16.0" y2="-70.2" stroke="#111827" stroke-width="3"/><circle cx="-16.0" cy="-70.2" r="10" fill="url(#headBlue)" stroke="#0b4fa3" stroke-width="1.5"/><line x1="6.7" y1="-29.5" x2="16.0" y2="-70.2" stroke="#111827" stroke-width="3"/><circle cx="16.0" cy="-70.2" r="10" fill="url(#headBlue)" stroke="#0b4fa3" stroke-width="1.5"/><line x1="18.9" y1="-23.6" x2="44.9" y2="-56.3" stroke="#111827" stroke-width="3"/><circle cx="44.9" cy="-56.3" r="10" fill="url(#headBlue)" stroke="#0b4fa3" stroke-width="1.5"/><line x1="27.2" y1="-13.1" x2="64.9" y2="-31.2" stroke="#111827" stroke-width="3"/><circle cx="64.9" cy="-31.2" r="10" fill="url(#headBlue)" stroke="#0b4fa3" stroke-width="1.5"/></g>
<text x="140" y="660" class="small">Le savon reste disponible pour laver.</text>
<rect x="630" y="190" width="500" height="510" rx="24" fill="#fff9ed" stroke="#d88112" stroke-width="2"/>
<text x="880" y="250" text-anchor="middle" class="h2 orange">Eau dure</text>
<circle cx="865" cy="390" r="34" fill="#ffd474" stroke="#d88112" stroke-width="3"/><text x="865" y="397" text-anchor="middle" class="label orange">Ca²⁺</text>
<text x="700" y="395" class="mono">R–COO⁻</text><text x="930" y="395" class="mono">R–COO⁻</text>
<line x1="820" y1="390" x2="740" y2="390" stroke="#111827" stroke-width="3"/><line x1="910" y1="390" x2="990" y2="390" stroke="#111827" stroke-width="3"/>
<path d="M865 430 V505" stroke="#111827" stroke-width="4" marker-end="url(#arrow)"/>
<ellipse cx="865" cy="570" rx="150" ry="45" fill="#ead9c7" stroke="#d88112" stroke-width="2"/><text x="770" y="580" class="label orange">savon calcaire</text>
<text x="710" y="660" class="small">Moins de savon actif : une partie précipite.</text>
<rect x="220" y="745" width="760" height="70" rx="18" class="warn"/><text x="260" y="790" class="mono">2 R–COO⁻ Na⁺ + Ca²⁺ → (R–COO)₂Ca ↓ + 2 Na⁺</text>
<rect x="250" y="835" width="700" height="60" rx="18" class="info"/><text x="290" y="873" class="small">Tartre = CaCO₃ ; savon calcaire = carboxylate de calcium.</text>

</svg>