<svg xmlns="http://www.w3.org/2000/svg" width="1200" height="760" viewBox="0 0 1200 760">
<style>
  .bg { fill:#FBFAF7; }
  .panel { fill:#F7F5F0; stroke:#D2C8B8; stroke-width:2; }
  .panelBlue { fill:#F1F6FD; stroke:#2B6CCF; stroke-width:2; }
  .panelOrange { fill:#FCF5E8; stroke:#D98310; stroke-width:2; }
  .panelGreen { fill:#EFF7F1; stroke:#2C7A48; stroke-width:2; }
  .ink { fill:#142544; font-family:Roboto,Arial,sans-serif; }
  .muted { fill:#4B5563; font-family:Roboto,Arial,sans-serif; }
  .small { font-size:22px; }
  .body { font-size:26px; }
  .h1 { font-size:54px; font-weight:800; }
  .h2 { font-size:34px; font-weight:700; }
  .h3 { font-size:30px; font-weight:700; }
  .note { font-size:20px; }
  .caption { font-size:24px; }
  .blue { fill:#2B6CCF; }
  .orange { fill:#D98310; }
  .green { fill:#2C7A48; }
  .darkstroke { stroke:#142544; stroke-width:4; fill:none; stroke-linecap:round; stroke-linejoin:round; }
  .bluestroke { stroke:#2B6CCF; stroke-width:4; fill:none; stroke-linecap:round; stroke-linejoin:round; }
  .orangestroke { stroke:#D98310; stroke-width:4; fill:none; stroke-linecap:round; stroke-linejoin:round; }
  .redstroke { stroke:#D1495B; stroke-width:3.5; fill:none; stroke-linecap:round; stroke-linejoin:round; }
  .dash { stroke-dasharray:9 9; }
</style>
<defs>
  <marker id="arrow" markerWidth="12" markerHeight="12" refX="10" refY="6" orient="auto">
    <path d="M0,0 L12,6 L0,12 z" fill="#142544"/>
  </marker>
  <marker id="blueArrow" markerWidth="12" markerHeight="12" refX="10" refY="6" orient="auto">
    <path d="M0,0 L12,6 L0,12 z" fill="#2B6CCF"/>
  </marker>
  <marker id="orangeArrow" markerWidth="12" markerHeight="12" refX="10" refY="6" orient="auto">
    <path d="M0,0 L12,6 L0,12 z" fill="#D98310"/>
  </marker>
  <marker id="redArrow" markerWidth="10" markerHeight="10" refX="8" refY="5" orient="auto">
    <path d="M0,0 L10,5 L0,10 z" fill="#D1495B"/>
  </marker>
</defs>
<rect class="bg" x="0" y="0" width="1200" height="760" rx="18"/>

<rect class="panel" x="40" y="40" width="1120" height="680" rx="22"/>
<text class="ink h1" x="600" y="110" text-anchor="middle">Eau douce vs eau dure : pourquoi le savon dépose ?</text>
<text class="muted body" x="600" y="155" text-anchor="middle">Le calcium capte deux carboxylates de savon et forme un sel insoluble.</text>

<rect class="panelBlue" x="90" y="215" width="400" height="340" rx="20"/>
<text class="ink h2 blue" x="290" y="265" text-anchor="middle">Eau douce</text>
<circle cx="170" cy="330" r="7" fill="#4A86D9" stroke="#2B6CCF" stroke-width="2"/><path d="M178 330 C198 320, 216 338, 230 330" class="darkstroke" stroke-width="3"/><circle cx="250" cy="320" r="7" fill="#4A86D9" stroke="#2B6CCF" stroke-width="2"/><path d="M258 320 C278 310, 296 328, 310 320" class="darkstroke" stroke-width="3"/><circle cx="200" cy="390" r="7" fill="#4A86D9" stroke="#2B6CCF" stroke-width="2"/><path d="M208 390 C228 380, 246 398, 260 390" class="darkstroke" stroke-width="3"/><circle cx="240" cy="470" r="18" fill="#F2C45B"/><line x1="262.0" y1="470.0" x2="282.0" y2="470.0" stroke="#142544" stroke-width="2.5"/><circle cx="282.0" cy="470.0" r="6" fill="#4A86D9" stroke="#2B6CCF" stroke-width="2"/><line x1="257.8" y1="482.9" x2="274.0" y2="494.7" stroke="#142544" stroke-width="2.5"/><circle cx="274.0" cy="494.7" r="6" fill="#4A86D9" stroke="#2B6CCF" stroke-width="2"/><line x1="246.8" y1="490.9" x2="253.0" y2="509.9" stroke="#142544" stroke-width="2.5"/><circle cx="253.0" cy="509.9" r="6" fill="#4A86D9" stroke="#2B6CCF" stroke-width="2"/><line x1="233.2" y1="490.9" x2="227.0" y2="509.9" stroke="#142544" stroke-width="2.5"/><circle cx="227.0" cy="509.9" r="6" fill="#4A86D9" stroke="#2B6CCF" stroke-width="2"/><line x1="222.2" y1="482.9" x2="206.0" y2="494.7" stroke="#142544" stroke-width="2.5"/><circle cx="206.0" cy="494.7" r="6" fill="#4A86D9" stroke="#2B6CCF" stroke-width="2"/><line x1="218.0" y1="470.0" x2="198.0" y2="470.0" stroke="#142544" stroke-width="2.5"/><circle cx="198.0" cy="470.0" r="6" fill="#4A86D9" stroke="#2B6CCF" stroke-width="2"/><line x1="222.2" y1="457.1" x2="206.0" y2="445.3" stroke="#142544" stroke-width="2.5"/><circle cx="206.0" cy="445.3" r="6" fill="#4A86D9" stroke="#2B6CCF" stroke-width="2"/><line x1="233.2" y1="449.1" x2="227.0" y2="430.1" stroke="#142544" stroke-width="2.5"/><circle cx="227.0" cy="430.1" r="6" fill="#4A86D9" stroke="#2B6CCF" stroke-width="2"/><line x1="246.8" y1="449.1" x2="253.0" y2="430.1" stroke="#142544" stroke-width="2.5"/><circle cx="253.0" cy="430.1" r="6" fill="#4A86D9" stroke="#2B6CCF" stroke-width="2"/><line x1="257.8" y1="457.1" x2="274.0" y2="445.3" stroke="#142544" stroke-width="2.5"/><circle cx="274.0" cy="445.3" r="6" fill="#4A86D9" stroke="#2B6CCF" stroke-width="2"/><circle cx="365" cy="420" r="18" fill="#F2C45B"/><line x1="387.0" y1="420.0" x2="407.0" y2="420.0" stroke="#142544" stroke-width="2.5"/><circle cx="407.0" cy="420.0" r="6" fill="#4A86D9" stroke="#2B6CCF" stroke-width="2"/><line x1="382.8" y1="432.9" x2="399.0" y2="444.7" stroke="#142544" stroke-width="2.5"/><circle cx="399.0" cy="444.7" r="6" fill="#4A86D9" stroke="#2B6CCF" stroke-width="2"/><line x1="371.8" y1="440.9" x2="378.0" y2="459.9" stroke="#142544" stroke-width="2.5"/><circle cx="378.0" cy="459.9" r="6" fill="#4A86D9" stroke="#2B6CCF" stroke-width="2"/><line x1="358.2" y1="440.9" x2="352.0" y2="459.9" stroke="#142544" stroke-width="2.5"/><circle cx="352.0" cy="459.9" r="6" fill="#4A86D9" stroke="#2B6CCF" stroke-width="2"/><line x1="347.2" y1="432.9" x2="331.0" y2="444.7" stroke="#142544" stroke-width="2.5"/><circle cx="331.0" cy="444.7" r="6" fill="#4A86D9" stroke="#2B6CCF" stroke-width="2"/><line x1="343.0" y1="420.0" x2="323.0" y2="420.0" stroke="#142544" stroke-width="2.5"/><circle cx="323.0" cy="420.0" r="6" fill="#4A86D9" stroke="#2B6CCF" stroke-width="2"/><line x1="347.2" y1="407.1" x2="331.0" y2="395.3" stroke="#142544" stroke-width="2.5"/><circle cx="331.0" cy="395.3" r="6" fill="#4A86D9" stroke="#2B6CCF" stroke-width="2"/><line x1="358.2" y1="399.1" x2="352.0" y2="380.1" stroke="#142544" stroke-width="2.5"/><circle cx="352.0" cy="380.1" r="6" fill="#4A86D9" stroke="#2B6CCF" stroke-width="2"/><line x1="371.8" y1="399.1" x2="378.0" y2="380.1" stroke="#142544" stroke-width="2.5"/><circle cx="378.0" cy="380.1" r="6" fill="#4A86D9" stroke="#2B6CCF" stroke-width="2"/><line x1="382.8" y1="407.1" x2="399.0" y2="395.3" stroke="#142544" stroke-width="2.5"/><circle cx="399.0" cy="395.3" r="6" fill="#4A86D9" stroke="#2B6CCF" stroke-width="2"/><text class="muted body" x="290" y="525" text-anchor="middle">Le savon reste disponible pour laver.</text>
<rect class="panelOrange" x="615" y="215" width="490" height="340" rx="20"/>
<text class="ink h2 orange" x="860" y="265" text-anchor="middle">Eau dure</text>
<text class="ink body" x="705" y="380" text-anchor="middle">R–COO<tspan dy="-9" font-size="18">−</tspan></text>
<text class="ink body" x="1015" y="380" text-anchor="middle">R–COO<tspan dy="-9" font-size="18">−</tspan></text>
<line x1="750" y1="375" x2="808" y2="375" class="darkstroke"/>
<line x1="911" y1="375" x2="970" y2="375" class="darkstroke"/>
<circle cx="860" cy="375" r="32" fill="#F3C76A" stroke="#D98310" stroke-width="4"/>
<text class="ink body orange" x="860" y="385" text-anchor="middle" font-weight="700">Ca<tspan dy="-10" font-size="18">2+</tspan></text>
<line x1="860" y1="410" x2="860" y2="450" class="darkstroke" marker-end="url(#arrow)"/>
<rect x="710" y="465" width="300" height="56" rx="24" fill="none" stroke="#D98310" stroke-width="3"/>
<text class="ink body orange" x="860" y="501" text-anchor="middle">savon calcaire insoluble</text>
<text class="muted body" x="860" y="535" text-anchor="middle">Moins de savon actif : une partie précipite.</text>

<rect class="panelOrange" x="230" y="585" width="740" height="62" rx="16"/>
<text class="ink body" x="600" y="623" text-anchor="middle">2 R–COO⁻ Na⁺ + Ca²⁺ → (R–COO)₂Ca ↓ + 2 Na⁺</text>
<rect class="panelBlue" x="300" y="660" width="600" height="48" rx="14"/>
<text class="muted body" x="600" y="692" text-anchor="middle">Tartre = CaCO₃ ; savon calcaire = carboxylate de calcium.</text>

</svg>