<svg xmlns="http://www.w3.org/2000/svg" width="1400" height="900" viewBox="0 0 1400 900">
<style>
  .bg { fill:#FBFAF7; }
  .panel { fill:#F7F5F0; stroke:#D2C8B8; stroke-width:2.2; }
  .panelBlue { fill:#F1F6FD; stroke:#2B6CCF; stroke-width:2.2; }
  .panelOrange { fill:#FCF5E8; stroke:#D98310; stroke-width:2.2; }
  .panelGreen { fill:#EFF7F1; stroke:#2C7A48; stroke-width:2.2; }
  .ink { fill:#142544; font-family:Roboto,Arial,sans-serif; }
  .muted { fill:#4B5563; font-family:Roboto,Arial,sans-serif; }
  .small { font-size:18px; }
  .body { font-size:22px; }
  .h1 { font-size:44px; font-weight:800; }
  .h2 { font-size:28px; font-weight:700; }
  .h3 { font-size:24px; font-weight:700; }
  .blue { fill:#2B6CCF; }
  .orange { fill:#D98310; }
  .green { fill:#2C7A48; }
  .darkstroke { stroke:#142544; stroke-width:4; fill:none; stroke-linecap:round; stroke-linejoin:round; }
  .bluestroke { stroke:#2B6CCF; stroke-width:3.5; fill:none; stroke-linecap:round; stroke-linejoin:round; }
  .orangestroke { stroke:#D98310; stroke-width:3.5; fill:none; stroke-linecap:round; stroke-linejoin:round; }
  .greenstroke { stroke:#2C7A48; stroke-width:3.5; fill:none; stroke-linecap:round; stroke-linejoin:round; }
  .redstroke { stroke:#D1495B; stroke-width:3; fill:none; stroke-linecap:round; stroke-linejoin:round; }
  .dash { stroke-dasharray:8 8; }
</style>
<defs>
  <marker id="arrow" markerWidth="12" markerHeight="12" refX="10" refY="6" orient="auto">
    <path d="M0,0 L12,6 L0,12 z" fill="#142544"/>
  </marker>
  <marker id="blueArrow" markerWidth="10" markerHeight="10" refX="8" refY="5" orient="auto">
    <path d="M0,0 L10,5 L0,10 z" fill="#2B6CCF"/>
  </marker>
  <marker id="orangeArrow" markerWidth="10" markerHeight="10" refX="8" refY="5" orient="auto">
    <path d="M0,0 L10,5 L0,10 z" fill="#D98310"/>
  </marker>
  <marker id="redArrow" markerWidth="8" markerHeight="8" refX="6" refY="4" orient="auto">
    <path d="M0,0 L8,4 L0,8 z" fill="#D1495B"/>
  </marker>
</defs>
<rect class="bg" width="1400" height="900" rx="18"/>

<rect class="panel" x="50" y="50" width="1300" height="800" rx="24"/>
<text class="ink h1" x="700" y="110" text-anchor="middle">Le mouillage : pourquoi l’eau s’étale mieux ?</text>
<text class="muted body" x="700" y="150" text-anchor="middle">Un tensioactif abaisse la tension superficielle et réduit l’angle de contact.</text>
<line x1="700" y1="200" x2="700" y2="590" stroke="#D2C8B8" stroke-width="3"/>

<text class="ink h2 blue" x="300" y="240">Sans tensioactif</text>
<rect x="180" y="460" width="300" height="38" fill="#E3DED5" stroke="#C7C0B5"/>
<path d="M255 460 C275 350, 385 350, 405 460 Z" fill="#A7CFF1" stroke="#2B6CCF" stroke-width="4"/>
<path d="M255 460 A64 64 0 0 1 313 398" class="darkstroke"/>
<text class="muted body" x="206" y="430">θ grand</text>
<text class="ink body blue" x="280" y="540">goutte qui perle</text>
<text class="muted small" x="205" y="572">mouillage faible</text>

<text class="ink h2 orange" x="860" y="240">Avec tensioactif</text>
<rect x="825" y="460" width="300" height="38" fill="#E3DED5" stroke="#C7C0B5"/>
<path d="M865 460 C878 420, 1065 420, 1080 460 Z" fill="#C6DCF1" stroke="#4A86D9" stroke-width="4"/>
<path d="M865 460 A28 28 0 0 1 894 432" class="darkstroke"/>
<circle cx="900" cy="455" r="7" fill="#4A86D9" stroke="#2B6CCF" stroke-width="2"/><path d="M900 462 C895 480, 905 490, 900 510" class="darkstroke" stroke-width="2.5"/><circle cx="940" cy="455" r="7" fill="#4A86D9" stroke="#2B6CCF" stroke-width="2"/><path d="M940 462 C935 480, 945 490, 940 510" class="darkstroke" stroke-width="2.5"/><circle cx="980" cy="455" r="7" fill="#4A86D9" stroke="#2B6CCF" stroke-width="2"/><path d="M980 462 C975 480, 985 490, 980 510" class="darkstroke" stroke-width="2.5"/><circle cx="1020" cy="455" r="7" fill="#4A86D9" stroke="#2B6CCF" stroke-width="2"/><path d="M1020 462 C1015 480, 1025 490, 1020 510" class="darkstroke" stroke-width="2.5"/>
<text class="muted body" x="845" y="430">θ petit</text>
<text class="ink body orange" x="900" y="540">goutte qui s’étale</text>
<text class="muted small" x="885" y="572">mouillage meilleur</text>

<rect class="panelBlue" x="260" y="660" width="880" height="72" rx="16"/>
<text class="muted body" x="700" y="705" text-anchor="middle">Moins l’angle de contact est grand, plus l’eau pénètre facilement pores, fibres et irrégularités.</text>

</svg>