<svg xmlns="http://www.w3.org/2000/svg" width="1200" height="900" viewBox="0 0 1200 900" role="img" aria-labelledby="title desc">
<title id="title">Pourquoi ça mousse ?</title><desc id="desc">Schéma scientifique pédagogique.</desc>
<defs>
<style>
.title{font:700 46px system-ui,-apple-system,BlinkMacSystemFont,'Segoe UI',sans-serif;fill:#0b1d3a;letter-spacing:-.8px}
.subtitle{font:400 21px system-ui,-apple-system,BlinkMacSystemFont,'Segoe UI',sans-serif;fill:#2f3a49}
.h2{font:700 30px system-ui,-apple-system,BlinkMacSystemFont,'Segoe UI',sans-serif;fill:#0b1d3a}
.label{font:600 20px system-ui,-apple-system,BlinkMacSystemFont,'Segoe UI',sans-serif;fill:#0b1d3a}
.small{font:400 17px system-ui,-apple-system,BlinkMacSystemFont,'Segoe UI',sans-serif;fill:#273449}
.tiny{font:400 14px system-ui,-apple-system,BlinkMacSystemFont,'Segoe UI',sans-serif;fill:#4b5563}
.mono{font:500 19px ui-monospace,SFMono-Regular,Menlo,monospace;fill:#111827}
.box{fill:#fff;stroke:#d7dce3;stroke-width:2}
.info{fill:#f7fbff;stroke:#1769d1;stroke-width:2}
.warn{fill:#fff9ed;stroke:#d88112;stroke-width:2}
.blue{fill:#1769d1}.orange{fill:#d88112}.green{fill:#237047}.purple{fill:#6a3aa8}.red{fill:#b84b3f}.muted{fill:#667085}
.tail{fill:none;stroke:#111827;stroke-width:4;stroke-linecap:round}
.line{stroke:#d7dce3;stroke-width:2}
</style>
<radialGradient id="headBlue" cx="35%" cy="30%"><stop offset="0" stop-color="#9fd7ff"/><stop offset="1" stop-color="#1769d1"/></radialGradient>
<radialGradient id="headOrange" cx="35%" cy="30%"><stop offset="0" stop-color="#ffe19a"/><stop offset="1" stop-color="#d88112"/></radialGradient>
<marker id="arrow" markerWidth="10" markerHeight="10" refX="8" refY="3" orient="auto"><path d="M0,0 L0,6 L9,3 z" fill="#111827"/></marker>
<marker id="arrowBlue" markerWidth="10" markerHeight="10" refX="8" refY="3" orient="auto"><path d="M0,0 L0,6 L9,3 z" fill="#1769d1"/></marker>
<marker id="arrowOrange" markerWidth="10" markerHeight="10" refX="8" refY="3" orient="auto"><path d="M0,0 L0,6 L9,3 z" fill="#d88112"/></marker>
</defs>
<rect width="100%" height="100%" fill="#fbfaf6"/>
<text x="600.0" y="72" text-anchor="middle" class="title">Pourquoi ça mousse ?</text>
<text x="600.0" y="112" text-anchor="middle" class="subtitle">Une mousse est une dispersion d’air stabilisée par les interfaces.</text>

<text x="170" y="400" class="h2">air</text><text x="960" y="400" class="h2">air</text>
<rect x="500" y="230" width="200" height="280" rx="80" fill="#dcefff" stroke="#68aee8" stroke-width="3" opacity=".85"/>
<circle cx="500" cy="260" r="8.1" fill="url(#headBlue)" stroke="#0b4fa3" stroke-width="0.9"/><path d="M489.2 260 C473.0 250.1 458.6 269.9 442.4 260 S414.5 250.1 399.2 260" class="tail" stroke-width="1.8"/><circle cx="500" cy="300" r="8.1" fill="url(#headBlue)" stroke="#0b4fa3" stroke-width="0.9"/><path d="M489.2 300 C473.0 290.1 458.6 309.9 442.4 300 S414.5 290.1 399.2 300" class="tail" stroke-width="1.8"/><circle cx="500" cy="340" r="8.1" fill="url(#headBlue)" stroke="#0b4fa3" stroke-width="0.9"/><path d="M489.2 340 C473.0 330.1 458.6 349.9 442.4 340 S414.5 330.1 399.2 340" class="tail" stroke-width="1.8"/><circle cx="500" cy="380" r="8.1" fill="url(#headBlue)" stroke="#0b4fa3" stroke-width="0.9"/><path d="M489.2 380 C473.0 370.1 458.6 389.9 442.4 380 S414.5 370.1 399.2 380" class="tail" stroke-width="1.8"/><circle cx="500" cy="420" r="8.1" fill="url(#headBlue)" stroke="#0b4fa3" stroke-width="0.9"/><path d="M489.2 420 C473.0 410.1 458.6 429.9 442.4 420 S414.5 410.1 399.2 420" class="tail" stroke-width="1.8"/><circle cx="500" cy="460" r="8.1" fill="url(#headBlue)" stroke="#0b4fa3" stroke-width="0.9"/><path d="M489.2 460 C473.0 450.1 458.6 469.9 442.4 460 S414.5 450.1 399.2 460" class="tail" stroke-width="1.8"/><circle cx="700" cy="260" r="8.1" fill="url(#headBlue)" stroke="#0b4fa3" stroke-width="0.9"/><path d="M710.8 260 C727.0 250.1 741.4 269.9 757.6 260 S785.5 250.1 800.8 260" class="tail" stroke-width="1.8"/><circle cx="700" cy="300" r="8.1" fill="url(#headBlue)" stroke="#0b4fa3" stroke-width="0.9"/><path d="M710.8 300 C727.0 290.1 741.4 309.9 757.6 300 S785.5 290.1 800.8 300" class="tail" stroke-width="1.8"/><circle cx="700" cy="340" r="8.1" fill="url(#headBlue)" stroke="#0b4fa3" stroke-width="0.9"/><path d="M710.8 340 C727.0 330.1 741.4 349.9 757.6 340 S785.5 330.1 800.8 340" class="tail" stroke-width="1.8"/><circle cx="700" cy="380" r="8.1" fill="url(#headBlue)" stroke="#0b4fa3" stroke-width="0.9"/><path d="M710.8 380 C727.0 370.1 741.4 389.9 757.6 380 S785.5 370.1 800.8 380" class="tail" stroke-width="1.8"/><circle cx="700" cy="420" r="8.1" fill="url(#headBlue)" stroke="#0b4fa3" stroke-width="0.9"/><path d="M710.8 420 C727.0 410.1 741.4 429.9 757.6 420 S785.5 410.1 800.8 420" class="tail" stroke-width="1.8"/><circle cx="700" cy="460" r="8.1" fill="url(#headBlue)" stroke="#0b4fa3" stroke-width="0.9"/><path d="M710.8 460 C727.0 450.1 741.4 469.9 757.6 460 S785.5 450.1 800.8 460" class="tail" stroke-width="1.8"/>
<text x="600" y="205" text-anchor="middle" class="label blue">film d’eau / lamelle</text>
<line x1="600" y1="215" x2="600" y2="255" stroke="#1769d1" stroke-width="3"/>
<text x="780" y="300" class="label blue">têtes dans l’eau</text><text x="780" y="345" class="label orange">queues vers l’air</text>
<rect x="135" y="620" width="380" height="120" rx="18" class="info"/>
<text x="175" y="665" class="label blue">drainage</text><text x="290" y="665" class="small">le liquide s’écoule,</text><text x="290" y="698" class="small">le film s’amincit</text><path d="M380 635 V715" stroke="#1769d1" stroke-width="12" marker-end="url(#arrowBlue)"/>
<rect x="650" y="620" width="420" height="120" rx="18" class="warn"/>
<text x="710" y="665" class="h2 orange">Mousse ≠ pouvoir lavant</text><text x="710" y="705" class="small">La mousse indique surtout la stabilité des bulles.</text>

</svg>