<svg xmlns="http://www.w3.org/2000/svg" width="1200" height="920" viewBox="0 0 1200 920" role="img" aria-labelledby="title desc">
<title id="title">Comment un tensioactif nettoie une graisse</title><desc id="desc">Schéma scientifique pédagogique.</desc>
<defs>
<style>
.title{font:700 46px system-ui,-apple-system,BlinkMacSystemFont,'Segoe UI',sans-serif;fill:#0b1d3a;letter-spacing:-.8px}
.subtitle{font:400 21px system-ui,-apple-system,BlinkMacSystemFont,'Segoe UI',sans-serif;fill:#2f3a49}
.h2{font:700 30px system-ui,-apple-system,BlinkMacSystemFont,'Segoe UI',sans-serif;fill:#0b1d3a}
.label{font:600 20px system-ui,-apple-system,BlinkMacSystemFont,'Segoe UI',sans-serif;fill:#0b1d3a}
.small{font:400 17px system-ui,-apple-system,BlinkMacSystemFont,'Segoe UI',sans-serif;fill:#273449}
.tiny{font:400 14px system-ui,-apple-system,BlinkMacSystemFont,'Segoe UI',sans-serif;fill:#4b5563}
.mono{font:500 19px ui-monospace,SFMono-Regular,Menlo,monospace;fill:#111827}
.box{fill:#fff;stroke:#d7dce3;stroke-width:2}
.info{fill:#f7fbff;stroke:#1769d1;stroke-width:2}
.warn{fill:#fff9ed;stroke:#d88112;stroke-width:2}
.blue{fill:#1769d1}.orange{fill:#d88112}.green{fill:#237047}.purple{fill:#6a3aa8}.red{fill:#b84b3f}.muted{fill:#667085}
.tail{fill:none;stroke:#111827;stroke-width:4;stroke-linecap:round}
.line{stroke:#d7dce3;stroke-width:2}
</style>
<radialGradient id="headBlue" cx="35%" cy="30%"><stop offset="0" stop-color="#9fd7ff"/><stop offset="1" stop-color="#1769d1"/></radialGradient>
<radialGradient id="headOrange" cx="35%" cy="30%"><stop offset="0" stop-color="#ffe19a"/><stop offset="1" stop-color="#d88112"/></radialGradient>
<marker id="arrow" markerWidth="10" markerHeight="10" refX="8" refY="3" orient="auto"><path d="M0,0 L0,6 L9,3 z" fill="#111827"/></marker>
<marker id="arrowBlue" markerWidth="10" markerHeight="10" refX="8" refY="3" orient="auto"><path d="M0,0 L0,6 L9,3 z" fill="#1769d1"/></marker>
<marker id="arrowOrange" markerWidth="10" markerHeight="10" refX="8" refY="3" orient="auto"><path d="M0,0 L0,6 L9,3 z" fill="#d88112"/></marker>
</defs>
<rect width="100%" height="100%" fill="#fbfaf6"/>
<text x="600.0" y="72" text-anchor="middle" class="title">Comment un tensioactif nettoie une graisse</text>
<text x="600.0" y="112" text-anchor="middle" class="subtitle">Cinq étapes complémentaires rendent la salissure rinçable.</text>
<rect x="70" y="180" width="330" height="250" rx="20" class="box"/><circle cx="108" cy="222" r="26" fill="#0b1d3a"/><text x="108" y="232" text-anchor="middle" font-size="28" font-weight="700" fill="#fff">1</text><text x="148" y="230" class="h2">Mouillage</text><rect x="105" y="338" width="260" height="26" fill="#e8e5dd" stroke="#b7b3a8"/><path d="M145 338 C170 300 250 305 290 338Z" fill="#ffd474" stroke="#d88112"/><path d="M130 285 C152 310 158 325 174 338" fill="none" stroke="#1769d1" stroke-width="5" marker-end="url(#arrowBlue)"/><text x="235.0" y="400" text-anchor="middle" class="small">L’eau accède à la surface sale.</text><rect x="430" y="180" width="330" height="250" rx="20" class="box"/><circle cx="468" cy="222" r="26" fill="#0b1d3a"/><text x="468" y="232" text-anchor="middle" font-size="28" font-weight="700" fill="#fff">2</text><text x="508" y="230" class="h2">Décollement</text><rect x="465" y="338" width="260" height="26" fill="#e8e5dd" stroke="#b7b3a8"/><path d="M465 330 C520 295 660 295 725 330 V338 H465Z" fill="#ffd474" opacity=".85"/><circle cx="510" cy="327" r="6.3" fill="url(#headBlue)" stroke="#0b4fa3" stroke-width="0.7"/><path d="M510 335.4 C502.3 348.0 517.7 359.2 510 371.8" class="tail" stroke-width="1.4"/><circle cx="546" cy="327" r="6.3" fill="url(#headBlue)" stroke="#0b4fa3" stroke-width="0.7"/><path d="M546 335.4 C538.3 348.0 553.7 359.2 546 371.8" class="tail" stroke-width="1.4"/><circle cx="582" cy="327" r="6.3" fill="url(#headBlue)" stroke="#0b4fa3" stroke-width="0.7"/><path d="M582 335.4 C574.3 348.0 589.7 359.2 582 371.8" class="tail" stroke-width="1.4"/><circle cx="618" cy="327" r="6.3" fill="url(#headBlue)" stroke="#0b4fa3" stroke-width="0.7"/><path d="M618 335.4 C610.3 348.0 625.7 359.2 618 371.8" class="tail" stroke-width="1.4"/><circle cx="654" cy="327" r="6.3" fill="url(#headBlue)" stroke="#0b4fa3" stroke-width="0.7"/><path d="M654 335.4 C646.3 348.0 661.7 359.2 654 371.8" class="tail" stroke-width="1.4"/><circle cx="690" cy="327" r="6.3" fill="url(#headBlue)" stroke="#0b4fa3" stroke-width="0.7"/><path d="M690 335.4 C682.3 348.0 697.7 359.2 690 371.8" class="tail" stroke-width="1.4"/><text x="595.0" y="400" text-anchor="middle" class="small">Les tensioactifs fragilisent l’adhérence.</text><rect x="790" y="180" width="330" height="250" rx="20" class="box"/><circle cx="828" cy="222" r="26" fill="#0b1d3a"/><text x="828" y="232" text-anchor="middle" font-size="28" font-weight="700" fill="#fff">3</text><text x="868" y="230" class="h2">Émulsification</text><rect x="825" y="338" width="260" height="26" fill="#e8e5dd" stroke="#b7b3a8"/><g transform="translate(905 290) scale(0.5833333333333334)"><circle cx="0" cy="0" r="27.4" fill="#ffd474" opacity=".95"/><line x1="30.2" y1="0.0" x2="72.0" y2="0.0" stroke="#111827" stroke-width="3"/><circle cx="72.0" cy="0.0" r="10" fill="url(#headBlue)" stroke="#0b4fa3" stroke-width="1.5"/><line x1="26.2" y1="15.1" x2="62.4" y2="36.0" stroke="#111827" stroke-width="3"/><circle cx="62.4" cy="36.0" r="10" fill="url(#headBlue)" stroke="#0b4fa3" stroke-width="1.5"/><line x1="15.1" y1="26.2" x2="36.0" y2="62.4" stroke="#111827" stroke-width="3"/><circle cx="36.0" cy="62.4" r="10" fill="url(#headBlue)" stroke="#0b4fa3" stroke-width="1.5"/><line x1="0.0" y1="30.2" x2="0.0" y2="72.0" stroke="#111827" stroke-width="3"/><circle cx="0.0" cy="72.0" r="10" fill="url(#headBlue)" stroke="#0b4fa3" stroke-width="1.5"/><line x1="-15.1" y1="26.2" x2="-36.0" y2="62.4" stroke="#111827" stroke-width="3"/><circle cx="-36.0" cy="62.4" r="10" fill="url(#headBlue)" stroke="#0b4fa3" stroke-width="1.5"/><line x1="-26.2" y1="15.1" x2="-62.4" y2="36.0" stroke="#111827" stroke-width="3"/><circle cx="-62.4" cy="36.0" r="10" fill="url(#headBlue)" stroke="#0b4fa3" stroke-width="1.5"/><line x1="-30.2" y1="0.0" x2="-72.0" y2="0.0" stroke="#111827" stroke-width="3"/><circle cx="-72.0" cy="0.0" r="10" fill="url(#headBlue)" stroke="#0b4fa3" stroke-width="1.5"/><line x1="-26.2" y1="-15.1" x2="-62.4" y2="-36.0" stroke="#111827" stroke-width="3"/><circle cx="-62.4" cy="-36.0" r="10" fill="url(#headBlue)" stroke="#0b4fa3" stroke-width="1.5"/><line x1="-15.1" y1="-26.2" x2="-36.0" y2="-62.4" stroke="#111827" stroke-width="3"/><circle cx="-36.0" cy="-62.4" r="10" fill="url(#headBlue)" stroke="#0b4fa3" stroke-width="1.5"/><line x1="-0.0" y1="-30.2" x2="-0.0" y2="-72.0" stroke="#111827" stroke-width="3"/><circle cx="-0.0" cy="-72.0" r="10" fill="url(#headBlue)" stroke="#0b4fa3" stroke-width="1.5"/><line x1="15.1" y1="-26.2" x2="36.0" y2="-62.4" stroke="#111827" stroke-width="3"/><circle cx="36.0" cy="-62.4" r="10" fill="url(#headBlue)" stroke="#0b4fa3" stroke-width="1.5"/><line x1="26.2" y1="-15.1" x2="62.4" y2="-36.0" stroke="#111827" stroke-width="3"/><circle cx="62.4" cy="-36.0" r="10" fill="url(#headBlue)" stroke="#0b4fa3" stroke-width="1.5"/></g><g transform="translate(1010 310) scale(0.4166666666666667)"><circle cx="0" cy="0" r="27.4" fill="#ffd474" opacity=".95"/><line x1="30.2" y1="0.0" x2="72.0" y2="0.0" stroke="#111827" stroke-width="3"/><circle cx="72.0" cy="0.0" r="10" fill="url(#headBlue)" stroke="#0b4fa3" stroke-width="1.5"/><line x1="26.2" y1="15.1" x2="62.4" y2="36.0" stroke="#111827" stroke-width="3"/><circle cx="62.4" cy="36.0" r="10" fill="url(#headBlue)" stroke="#0b4fa3" stroke-width="1.5"/><line x1="15.1" y1="26.2" x2="36.0" y2="62.4" stroke="#111827" stroke-width="3"/><circle cx="36.0" cy="62.4" r="10" fill="url(#headBlue)" stroke="#0b4fa3" stroke-width="1.5"/><line x1="0.0" y1="30.2" x2="0.0" y2="72.0" stroke="#111827" stroke-width="3"/><circle cx="0.0" cy="72.0" r="10" fill="url(#headBlue)" stroke="#0b4fa3" stroke-width="1.5"/><line x1="-15.1" y1="26.2" x2="-36.0" y2="62.4" stroke="#111827" stroke-width="3"/><circle cx="-36.0" cy="62.4" r="10" fill="url(#headBlue)" stroke="#0b4fa3" stroke-width="1.5"/><line x1="-26.2" y1="15.1" x2="-62.4" y2="36.0" stroke="#111827" stroke-width="3"/><circle cx="-62.4" cy="36.0" r="10" fill="url(#headBlue)" stroke="#0b4fa3" stroke-width="1.5"/><line x1="-30.2" y1="0.0" x2="-72.0" y2="0.0" stroke="#111827" stroke-width="3"/><circle cx="-72.0" cy="0.0" r="10" fill="url(#headBlue)" stroke="#0b4fa3" stroke-width="1.5"/><line x1="-26.2" y1="-15.1" x2="-62.4" y2="-36.0" stroke="#111827" stroke-width="3"/><circle cx="-62.4" cy="-36.0" r="10" fill="url(#headBlue)" stroke="#0b4fa3" stroke-width="1.5"/><line x1="-15.1" y1="-26.2" x2="-36.0" y2="-62.4" stroke="#111827" stroke-width="3"/><circle cx="-36.0" cy="-62.4" r="10" fill="url(#headBlue)" stroke="#0b4fa3" stroke-width="1.5"/><line x1="-0.0" y1="-30.2" x2="-0.0" y2="-72.0" stroke="#111827" stroke-width="3"/><circle cx="-0.0" cy="-72.0" r="10" fill="url(#headBlue)" stroke="#0b4fa3" stroke-width="1.5"/><line x1="15.1" y1="-26.2" x2="36.0" y2="-62.4" stroke="#111827" stroke-width="3"/><circle cx="36.0" cy="-62.4" r="10" fill="url(#headBlue)" stroke="#0b4fa3" stroke-width="1.5"/><line x1="26.2" y1="-15.1" x2="62.4" y2="-36.0" stroke="#111827" stroke-width="3"/><circle cx="62.4" cy="-36.0" r="10" fill="url(#headBlue)" stroke="#0b4fa3" stroke-width="1.5"/></g><g transform="translate(1040 265) scale(0.3055555555555556)"><circle cx="0" cy="0" r="27.4" fill="#ffd474" opacity=".95"/><line x1="30.2" y1="0.0" x2="72.0" y2="0.0" stroke="#111827" stroke-width="3"/><circle cx="72.0" cy="0.0" r="10" fill="url(#headBlue)" stroke="#0b4fa3" stroke-width="1.5"/><line x1="26.2" y1="15.1" x2="62.4" y2="36.0" stroke="#111827" stroke-width="3"/><circle cx="62.4" cy="36.0" r="10" fill="url(#headBlue)" stroke="#0b4fa3" stroke-width="1.5"/><line x1="15.1" y1="26.2" x2="36.0" y2="62.4" stroke="#111827" stroke-width="3"/><circle cx="36.0" cy="62.4" r="10" fill="url(#headBlue)" stroke="#0b4fa3" stroke-width="1.5"/><line x1="0.0" y1="30.2" x2="0.0" y2="72.0" stroke="#111827" stroke-width="3"/><circle cx="0.0" cy="72.0" r="10" fill="url(#headBlue)" stroke="#0b4fa3" stroke-width="1.5"/><line x1="-15.1" y1="26.2" x2="-36.0" y2="62.4" stroke="#111827" stroke-width="3"/><circle cx="-36.0" cy="62.4" r="10" fill="url(#headBlue)" stroke="#0b4fa3" stroke-width="1.5"/><line x1="-26.2" y1="15.1" x2="-62.4" y2="36.0" stroke="#111827" stroke-width="3"/><circle cx="-62.4" cy="36.0" r="10" fill="url(#headBlue)" stroke="#0b4fa3" stroke-width="1.5"/><line x1="-30.2" y1="0.0" x2="-72.0" y2="0.0" stroke="#111827" stroke-width="3"/><circle cx="-72.0" cy="0.0" r="10" fill="url(#headBlue)" stroke="#0b4fa3" stroke-width="1.5"/><line x1="-26.2" y1="-15.1" x2="-62.4" y2="-36.0" stroke="#111827" stroke-width="3"/><circle cx="-62.4" cy="-36.0" r="10" fill="url(#headBlue)" stroke="#0b4fa3" stroke-width="1.5"/><line x1="-15.1" y1="-26.2" x2="-36.0" y2="-62.4" stroke="#111827" stroke-width="3"/><circle cx="-36.0" cy="-62.4" r="10" fill="url(#headBlue)" stroke="#0b4fa3" stroke-width="1.5"/><line x1="-0.0" y1="-30.2" x2="-0.0" y2="-72.0" stroke="#111827" stroke-width="3"/><circle cx="-0.0" cy="-72.0" r="10" fill="url(#headBlue)" stroke="#0b4fa3" stroke-width="1.5"/><line x1="15.1" y1="-26.2" x2="36.0" y2="-62.4" stroke="#111827" stroke-width="3"/><circle cx="36.0" cy="-62.4" r="10" fill="url(#headBlue)" stroke="#0b4fa3" stroke-width="1.5"/><line x1="26.2" y1="-15.1" x2="62.4" y2="-36.0" stroke="#111827" stroke-width="3"/><circle cx="62.4" cy="-36.0" r="10" fill="url(#headBlue)" stroke="#0b4fa3" stroke-width="1.5"/></g><text x="955.0" y="400" text-anchor="middle" class="small">Le gras est divisé en gouttelettes.</text><rect x="170" y="500" width="400" height="250" rx="20" class="box"/><circle cx="208" cy="542" r="26" fill="#0b1d3a"/><text x="208" y="552" text-anchor="middle" font-size="28" font-weight="700" fill="#fff">4</text><text x="248" y="550" class="h2">Solubilisation micellaire</text><rect x="205" y="658" width="330" height="26" fill="#e8e5dd" stroke="#b7b3a8"/><g transform="translate(310 615) scale(.75)"><circle cx="0" cy="0" r="27.4" fill="#ffd474" opacity=".95"/><line x1="30.2" y1="0.0" x2="72.0" y2="0.0" stroke="#111827" stroke-width="3"/><circle cx="72.0" cy="0.0" r="10" fill="url(#headBlue)" stroke="#0b4fa3" stroke-width="1.5"/><line x1="27.9" y1="11.6" x2="66.5" y2="27.6" stroke="#111827" stroke-width="3"/><circle cx="66.5" cy="27.6" r="10" fill="url(#headBlue)" stroke="#0b4fa3" stroke-width="1.5"/><line x1="21.4" y1="21.4" x2="50.9" y2="50.9" stroke="#111827" stroke-width="3"/><circle cx="50.9" cy="50.9" r="10" fill="url(#headBlue)" stroke="#0b4fa3" stroke-width="1.5"/><line x1="11.6" y1="27.9" x2="27.6" y2="66.5" stroke="#111827" stroke-width="3"/><circle cx="27.6" cy="66.5" r="10" fill="url(#headBlue)" stroke="#0b4fa3" stroke-width="1.5"/><line x1="0.0" y1="30.2" x2="0.0" y2="72.0" stroke="#111827" stroke-width="3"/><circle cx="0.0" cy="72.0" r="10" fill="url(#headBlue)" stroke="#0b4fa3" stroke-width="1.5"/><line x1="-11.6" y1="27.9" x2="-27.6" y2="66.5" stroke="#111827" stroke-width="3"/><circle cx="-27.6" cy="66.5" r="10" fill="url(#headBlue)" stroke="#0b4fa3" stroke-width="1.5"/><line x1="-21.4" y1="21.4" x2="-50.9" y2="50.9" stroke="#111827" stroke-width="3"/><circle cx="-50.9" cy="50.9" r="10" fill="url(#headBlue)" stroke="#0b4fa3" stroke-width="1.5"/><line x1="-27.9" y1="11.6" x2="-66.5" y2="27.6" stroke="#111827" stroke-width="3"/><circle cx="-66.5" cy="27.6" r="10" fill="url(#headBlue)" stroke="#0b4fa3" stroke-width="1.5"/><line x1="-30.2" y1="0.0" x2="-72.0" y2="0.0" stroke="#111827" stroke-width="3"/><circle cx="-72.0" cy="0.0" r="10" fill="url(#headBlue)" stroke="#0b4fa3" stroke-width="1.5"/><line x1="-27.9" y1="-11.6" x2="-66.5" y2="-27.6" stroke="#111827" stroke-width="3"/><circle cx="-66.5" cy="-27.6" r="10" fill="url(#headBlue)" stroke="#0b4fa3" stroke-width="1.5"/><line x1="-21.4" y1="-21.4" x2="-50.9" y2="-50.9" stroke="#111827" stroke-width="3"/><circle cx="-50.9" cy="-50.9" r="10" fill="url(#headBlue)" stroke="#0b4fa3" stroke-width="1.5"/><line x1="-11.6" y1="-27.9" x2="-27.6" y2="-66.5" stroke="#111827" stroke-width="3"/><circle cx="-27.6" cy="-66.5" r="10" fill="url(#headBlue)" stroke="#0b4fa3" stroke-width="1.5"/><line x1="-0.0" y1="-30.2" x2="-0.0" y2="-72.0" stroke="#111827" stroke-width="3"/><circle cx="-0.0" cy="-72.0" r="10" fill="url(#headBlue)" stroke="#0b4fa3" stroke-width="1.5"/><line x1="11.6" y1="-27.9" x2="27.6" y2="-66.5" stroke="#111827" stroke-width="3"/><circle cx="27.6" cy="-66.5" r="10" fill="url(#headBlue)" stroke="#0b4fa3" stroke-width="1.5"/><line x1="21.4" y1="-21.4" x2="50.9" y2="-50.9" stroke="#111827" stroke-width="3"/><circle cx="50.9" cy="-50.9" r="10" fill="url(#headBlue)" stroke="#0b4fa3" stroke-width="1.5"/><line x1="27.9" y1="-11.6" x2="66.5" y2="-27.6" stroke="#111827" stroke-width="3"/><circle cx="66.5" cy="-27.6" r="10" fill="url(#headBlue)" stroke="#0b4fa3" stroke-width="1.5"/></g><g transform="translate({x+280} {y+125}) scale(.55)"><circle cx="0" cy="0" r="27.4" fill="#ffd474" opacity=".95"/><line x1="30.2" y1="0.0" x2="72.0" y2="0.0" stroke="#111827" stroke-width="3"/><circle cx="72.0" cy="0.0" r="10" fill="url(#headBlue)" stroke="#0b4fa3" stroke-width="1.5"/><line x1="27.2" y1="13.1" x2="64.9" y2="31.2" stroke="#111827" stroke-width="3"/><circle cx="64.9" cy="31.2" r="10" fill="url(#headBlue)" stroke="#0b4fa3" stroke-width="1.5"/><line x1="18.9" y1="23.6" x2="44.9" y2="56.3" stroke="#111827" stroke-width="3"/><circle cx="44.9" cy="56.3" r="10" fill="url(#headBlue)" stroke="#0b4fa3" stroke-width="1.5"/><line x1="6.7" y1="29.5" x2="16.0" y2="70.2" stroke="#111827" stroke-width="3"/><circle cx="16.0" cy="70.2" r="10" fill="url(#headBlue)" stroke="#0b4fa3" stroke-width="1.5"/><line x1="-6.7" y1="29.5" x2="-16.0" y2="70.2" stroke="#111827" stroke-width="3"/><circle cx="-16.0" cy="70.2" r="10" fill="url(#headBlue)" stroke="#0b4fa3" stroke-width="1.5"/><line x1="-18.9" y1="23.6" x2="-44.9" y2="56.3" stroke="#111827" stroke-width="3"/><circle cx="-44.9" cy="56.3" r="10" fill="url(#headBlue)" stroke="#0b4fa3" stroke-width="1.5"/><line x1="-27.2" y1="13.1" x2="-64.9" y2="31.2" stroke="#111827" stroke-width="3"/><circle cx="-64.9" cy="31.2" r="10" fill="url(#headBlue)" stroke="#0b4fa3" stroke-width="1.5"/><line x1="-30.2" y1="0.0" x2="-72.0" y2="0.0" stroke="#111827" stroke-width="3"/><circle cx="-72.0" cy="0.0" r="10" fill="url(#headBlue)" stroke="#0b4fa3" stroke-width="1.5"/><line x1="-27.2" y1="-13.1" x2="-64.9" y2="-31.2" stroke="#111827" stroke-width="3"/><circle cx="-64.9" cy="-31.2" r="10" fill="url(#headBlue)" stroke="#0b4fa3" stroke-width="1.5"/><line x1="-18.9" y1="-23.6" x2="-44.9" y2="-56.3" stroke="#111827" stroke-width="3"/><circle cx="-44.9" cy="-56.3" r="10" fill="url(#headBlue)" stroke="#0b4fa3" stroke-width="1.5"/><line x1="-6.7" y1="-29.5" x2="-16.0" y2="-70.2" stroke="#111827" stroke-width="3"/><circle cx="-16.0" cy="-70.2" r="10" fill="url(#headBlue)" stroke="#0b4fa3" stroke-width="1.5"/><line x1="6.7" y1="-29.5" x2="16.0" y2="-70.2" stroke="#111827" stroke-width="3"/><circle cx="16.0" cy="-70.2" r="10" fill="url(#headBlue)" stroke="#0b4fa3" stroke-width="1.5"/><line x1="18.9" y1="-23.6" x2="44.9" y2="-56.3" stroke="#111827" stroke-width="3"/><circle cx="44.9" cy="-56.3" r="10" fill="url(#headBlue)" stroke="#0b4fa3" stroke-width="1.5"/><line x1="27.2" y1="-13.1" x2="64.9" y2="-31.2" stroke="#111827" stroke-width="3"/><circle cx="64.9" cy="-31.2" r="10" fill="url(#headBlue)" stroke="#0b4fa3" stroke-width="1.5"/></g><text x="370.0" y="720" text-anchor="middle" class="small">Le gras peut être piégé dans les micelles.</text><rect x="630" y="500" width="400" height="250" rx="20" class="box"/><circle cx="668" cy="542" r="26" fill="#0b1d3a"/><text x="668" y="552" text-anchor="middle" font-size="28" font-weight="700" fill="#fff">5</text><text x="708" y="550" class="h2">Dispersion / rinçage</text><rect x="665" y="658" width="330" height="26" fill="#e8e5dd" stroke="#b7b3a8"/><g transform="translate(760 605) scale(.55)"><circle cx="0" cy="0" r="27.4" fill="#ffd474" opacity=".95"/><line x1="30.2" y1="0.0" x2="72.0" y2="0.0" stroke="#111827" stroke-width="3"/><circle cx="72.0" cy="0.0" r="10" fill="url(#headBlue)" stroke="#0b4fa3" stroke-width="1.5"/><line x1="27.2" y1="13.1" x2="64.9" y2="31.2" stroke="#111827" stroke-width="3"/><circle cx="64.9" cy="31.2" r="10" fill="url(#headBlue)" stroke="#0b4fa3" stroke-width="1.5"/><line x1="18.9" y1="23.6" x2="44.9" y2="56.3" stroke="#111827" stroke-width="3"/><circle cx="44.9" cy="56.3" r="10" fill="url(#headBlue)" stroke="#0b4fa3" stroke-width="1.5"/><line x1="6.7" y1="29.5" x2="16.0" y2="70.2" stroke="#111827" stroke-width="3"/><circle cx="16.0" cy="70.2" r="10" fill="url(#headBlue)" stroke="#0b4fa3" stroke-width="1.5"/><line x1="-6.7" y1="29.5" x2="-16.0" y2="70.2" stroke="#111827" stroke-width="3"/><circle cx="-16.0" cy="70.2" r="10" fill="url(#headBlue)" stroke="#0b4fa3" stroke-width="1.5"/><line x1="-18.9" y1="23.6" x2="-44.9" y2="56.3" stroke="#111827" stroke-width="3"/><circle cx="-44.9" cy="56.3" r="10" fill="url(#headBlue)" stroke="#0b4fa3" stroke-width="1.5"/><line x1="-27.2" y1="13.1" x2="-64.9" y2="31.2" stroke="#111827" stroke-width="3"/><circle cx="-64.9" cy="31.2" r="10" fill="url(#headBlue)" stroke="#0b4fa3" stroke-width="1.5"/><line x1="-30.2" y1="0.0" x2="-72.0" y2="0.0" stroke="#111827" stroke-width="3"/><circle cx="-72.0" cy="0.0" r="10" fill="url(#headBlue)" stroke="#0b4fa3" stroke-width="1.5"/><line x1="-27.2" y1="-13.1" x2="-64.9" y2="-31.2" stroke="#111827" stroke-width="3"/><circle cx="-64.9" cy="-31.2" r="10" fill="url(#headBlue)" stroke="#0b4fa3" stroke-width="1.5"/><line x1="-18.9" y1="-23.6" x2="-44.9" y2="-56.3" stroke="#111827" stroke-width="3"/><circle cx="-44.9" cy="-56.3" r="10" fill="url(#headBlue)" stroke="#0b4fa3" stroke-width="1.5"/><line x1="-6.7" y1="-29.5" x2="-16.0" y2="-70.2" stroke="#111827" stroke-width="3"/><circle cx="-16.0" cy="-70.2" r="10" fill="url(#headBlue)" stroke="#0b4fa3" stroke-width="1.5"/><line x1="6.7" y1="-29.5" x2="16.0" y2="-70.2" stroke="#111827" stroke-width="3"/><circle cx="16.0" cy="-70.2" r="10" fill="url(#headBlue)" stroke="#0b4fa3" stroke-width="1.5"/><line x1="18.9" y1="-23.6" x2="44.9" y2="-56.3" stroke="#111827" stroke-width="3"/><circle cx="44.9" cy="-56.3" r="10" fill="url(#headBlue)" stroke="#0b4fa3" stroke-width="1.5"/><line x1="27.2" y1="-13.1" x2="64.9" y2="-31.2" stroke="#111827" stroke-width="3"/><circle cx="64.9" cy="-31.2" r="10" fill="url(#headBlue)" stroke="#0b4fa3" stroke-width="1.5"/></g><g transform="translate({x+260} {y+110}) scale(.6)"><circle cx="0" cy="0" r="27.4" fill="#ffd474" opacity=".95"/><line x1="30.2" y1="0.0" x2="72.0" y2="0.0" stroke="#111827" stroke-width="3"/><circle cx="72.0" cy="0.0" r="10" fill="url(#headBlue)" stroke="#0b4fa3" stroke-width="1.5"/><line x1="27.2" y1="13.1" x2="64.9" y2="31.2" stroke="#111827" stroke-width="3"/><circle cx="64.9" cy="31.2" r="10" fill="url(#headBlue)" stroke="#0b4fa3" stroke-width="1.5"/><line x1="18.9" y1="23.6" x2="44.9" y2="56.3" stroke="#111827" stroke-width="3"/><circle cx="44.9" cy="56.3" r="10" fill="url(#headBlue)" stroke="#0b4fa3" stroke-width="1.5"/><line x1="6.7" y1="29.5" x2="16.0" y2="70.2" stroke="#111827" stroke-width="3"/><circle cx="16.0" cy="70.2" r="10" fill="url(#headBlue)" stroke="#0b4fa3" stroke-width="1.5"/><line x1="-6.7" y1="29.5" x2="-16.0" y2="70.2" stroke="#111827" stroke-width="3"/><circle cx="-16.0" cy="70.2" r="10" fill="url(#headBlue)" stroke="#0b4fa3" stroke-width="1.5"/><line x1="-18.9" y1="23.6" x2="-44.9" y2="56.3" stroke="#111827" stroke-width="3"/><circle cx="-44.9" cy="56.3" r="10" fill="url(#headBlue)" stroke="#0b4fa3" stroke-width="1.5"/><line x1="-27.2" y1="13.1" x2="-64.9" y2="31.2" stroke="#111827" stroke-width="3"/><circle cx="-64.9" cy="31.2" r="10" fill="url(#headBlue)" stroke="#0b4fa3" stroke-width="1.5"/><line x1="-30.2" y1="0.0" x2="-72.0" y2="0.0" stroke="#111827" stroke-width="3"/><circle cx="-72.0" cy="0.0" r="10" fill="url(#headBlue)" stroke="#0b4fa3" stroke-width="1.5"/><line x1="-27.2" y1="-13.1" x2="-64.9" y2="-31.2" stroke="#111827" stroke-width="3"/><circle cx="-64.9" cy="-31.2" r="10" fill="url(#headBlue)" stroke="#0b4fa3" stroke-width="1.5"/><line x1="-18.9" y1="-23.6" x2="-44.9" y2="-56.3" stroke="#111827" stroke-width="3"/><circle cx="-44.9" cy="-56.3" r="10" fill="url(#headBlue)" stroke="#0b4fa3" stroke-width="1.5"/><line x1="-6.7" y1="-29.5" x2="-16.0" y2="-70.2" stroke="#111827" stroke-width="3"/><circle cx="-16.0" cy="-70.2" r="10" fill="url(#headBlue)" stroke="#0b4fa3" stroke-width="1.5"/><line x1="6.7" y1="-29.5" x2="16.0" y2="-70.2" stroke="#111827" stroke-width="3"/><circle cx="16.0" cy="-70.2" r="10" fill="url(#headBlue)" stroke="#0b4fa3" stroke-width="1.5"/><line x1="18.9" y1="-23.6" x2="44.9" y2="-56.3" stroke="#111827" stroke-width="3"/><circle cx="44.9" cy="-56.3" r="10" fill="url(#headBlue)" stroke="#0b4fa3" stroke-width="1.5"/><line x1="27.2" y1="-13.1" x2="64.9" y2="-31.2" stroke="#111827" stroke-width="3"/><circle cx="64.9" cy="-31.2" r="10" fill="url(#headBlue)" stroke="#0b4fa3" stroke-width="1.5"/></g><path d="M{x+280} {y+165} H{x+360}" stroke="#1769d1" stroke-width="12" marker-end="url(#arrowBlue)"/><text x="{x+285}" y="{y+148}" class="label blue">RINÇAGE</text><text x="830.0" y="720" text-anchor="middle" class="small">Les salissures sont évacuées au rinçage.</text><rect x="170" y="795" width="860" height="62" rx="18" class="info"/><text x="210" y="833" class="small">Le lavage combine plusieurs effets : mouiller, décoller, fragmenter, disperser et rincer.</text>
</svg>