<svg xmlns="http://www.w3.org/2000/svg" width="1200" height="760" viewBox="0 0 1200 760">
<style>
  .bg { fill:#FBFAF7; }
  .panel { fill:#F7F5F0; stroke:#D2C8B8; stroke-width:2; }
  .panelBlue { fill:#F1F6FD; stroke:#2B6CCF; stroke-width:2; }
  .panelOrange { fill:#FCF5E8; stroke:#D98310; stroke-width:2; }
  .panelGreen { fill:#EFF7F1; stroke:#2C7A48; stroke-width:2; }
  .ink { fill:#142544; font-family:Roboto,Arial,sans-serif; }
  .muted { fill:#4B5563; font-family:Roboto,Arial,sans-serif; }
  .small { font-size:22px; }
  .body { font-size:26px; }
  .h1 { font-size:54px; font-weight:800; }
  .h2 { font-size:34px; font-weight:700; }
  .h3 { font-size:30px; font-weight:700; }
  .note { font-size:20px; }
  .caption { font-size:24px; }
  .blue { fill:#2B6CCF; }
  .orange { fill:#D98310; }
  .green { fill:#2C7A48; }
  .darkstroke { stroke:#142544; stroke-width:4; fill:none; stroke-linecap:round; stroke-linejoin:round; }
  .bluestroke { stroke:#2B6CCF; stroke-width:4; fill:none; stroke-linecap:round; stroke-linejoin:round; }
  .orangestroke { stroke:#D98310; stroke-width:4; fill:none; stroke-linecap:round; stroke-linejoin:round; }
  .redstroke { stroke:#D1495B; stroke-width:3.5; fill:none; stroke-linecap:round; stroke-linejoin:round; }
  .dash { stroke-dasharray:9 9; }
</style>
<defs>
  <marker id="arrow" markerWidth="12" markerHeight="12" refX="10" refY="6" orient="auto">
    <path d="M0,0 L12,6 L0,12 z" fill="#142544"/>
  </marker>
  <marker id="blueArrow" markerWidth="12" markerHeight="12" refX="10" refY="6" orient="auto">
    <path d="M0,0 L12,6 L0,12 z" fill="#2B6CCF"/>
  </marker>
  <marker id="orangeArrow" markerWidth="12" markerHeight="12" refX="10" refY="6" orient="auto">
    <path d="M0,0 L12,6 L0,12 z" fill="#D98310"/>
  </marker>
  <marker id="redArrow" markerWidth="10" markerHeight="10" refX="8" refY="5" orient="auto">
    <path d="M0,0 L10,5 L0,10 z" fill="#D1495B"/>
  </marker>
</defs>
<rect class="bg" x="0" y="0" width="1200" height="760" rx="18"/>

<rect class="panel" x="40" y="40" width="1120" height="680" rx="22"/>
<text class="ink h1" x="600" y="110" text-anchor="middle">Le mouillage : pourquoi l’eau s’étale mieux ?</text>
<text class="muted body" x="600" y="155" text-anchor="middle">Un tensioactif abaisse la tension superficielle et réduit l’angle de contact.</text>
<line x1="600" y1="200" x2="600" y2="570" stroke="#D2C8B8" stroke-width="3"/>
<text class="ink h2 blue" x="250" y="220">Sans tensioactif</text>
<text class="ink h2 orange" x="760" y="220">Avec tensioactif</text>

<rect x="170" y="430" width="250" height="34" fill="#E3DED5" stroke="#C7C0B5"/>
<path d="M240 430 C260 330, 360 330, 380 430 Z" fill="#9AC7F0" stroke="#2B6CCF" stroke-width="4"/>
<path d="M240 430 A55 55 0 0 1 292 376" class="darkstroke"/>
<text class="muted body" x="206" y="410">θ grand</text>
<text class="ink body blue" x="245" y="500">goutte qui perle</text>
<text class="muted small" x="210" y="535">mouillage faible · tension superficielle élevée</text>

<rect x="680" y="430" width="250" height="34" fill="#E3DED5" stroke="#C7C0B5"/>
<path d="M725 430 C735 395, 885 395, 895 430 Z" fill="#B7D7F3" stroke="#4A86D9" stroke-width="4"/>
<path d="M725 430 A33 33 0 0 1 760 401" class="darkstroke"/>
<text class="muted body" x="705" y="410">θ petit</text>
<circle cx="740" cy="425" r="8" fill="#4A86D9" stroke="#2B6CCF" stroke-width="2"/><path d="M740 433 C734 450, 746 462, 740 485" class="darkstroke" stroke-width="3"/><circle cx="780" cy="425" r="8" fill="#4A86D9" stroke="#2B6CCF" stroke-width="2"/><path d="M780 433 C774 450, 786 462, 780 485" class="darkstroke" stroke-width="3"/><circle cx="820" cy="425" r="8" fill="#4A86D9" stroke="#2B6CCF" stroke-width="2"/><path d="M820 433 C814 450, 826 462, 820 485" class="darkstroke" stroke-width="3"/><circle cx="860" cy="425" r="8" fill="#4A86D9" stroke="#2B6CCF" stroke-width="2"/><path d="M860 433 C854 450, 866 462, 860 485" class="darkstroke" stroke-width="3"/>
<text class="ink body orange" x="742" y="500">goutte qui s’étale</text>
<text class="muted small" x="690" y="535">mouillage meilleur · l’eau pénètre mieux les pores</text>

<rect class="panelBlue" x="275" y="585" width="650" height="78" rx="18"/>
<text class="muted body" x="600" y="635" text-anchor="middle">Moins l’angle de contact est grand, plus le mouillage est efficace.</text>

</svg>