<svg xmlns="http://www.w3.org/2000/svg" width="1200" height="900" viewBox="0 0 1200 900" role="img" aria-labelledby="title desc">
<title id="title">Qu’est-ce qu’un tensioactif ?</title><desc id="desc">Schéma scientifique pédagogique.</desc>
<defs>
<style>
.title{font:700 46px system-ui,-apple-system,BlinkMacSystemFont,'Segoe UI',sans-serif;fill:#0b1d3a;letter-spacing:-.8px}
.subtitle{font:400 21px system-ui,-apple-system,BlinkMacSystemFont,'Segoe UI',sans-serif;fill:#2f3a49}
.h2{font:700 30px system-ui,-apple-system,BlinkMacSystemFont,'Segoe UI',sans-serif;fill:#0b1d3a}
.label{font:600 20px system-ui,-apple-system,BlinkMacSystemFont,'Segoe UI',sans-serif;fill:#0b1d3a}
.small{font:400 17px system-ui,-apple-system,BlinkMacSystemFont,'Segoe UI',sans-serif;fill:#273449}
.tiny{font:400 14px system-ui,-apple-system,BlinkMacSystemFont,'Segoe UI',sans-serif;fill:#4b5563}
.mono{font:500 19px ui-monospace,SFMono-Regular,Menlo,monospace;fill:#111827}
.box{fill:#fff;stroke:#d7dce3;stroke-width:2}
.info{fill:#f7fbff;stroke:#1769d1;stroke-width:2}
.warn{fill:#fff9ed;stroke:#d88112;stroke-width:2}
.blue{fill:#1769d1}.orange{fill:#d88112}.green{fill:#237047}.purple{fill:#6a3aa8}.red{fill:#b84b3f}.muted{fill:#667085}
.tail{fill:none;stroke:#111827;stroke-width:4;stroke-linecap:round}
.line{stroke:#d7dce3;stroke-width:2}
</style>
<radialGradient id="headBlue" cx="35%" cy="30%"><stop offset="0" stop-color="#9fd7ff"/><stop offset="1" stop-color="#1769d1"/></radialGradient>
<radialGradient id="headOrange" cx="35%" cy="30%"><stop offset="0" stop-color="#ffe19a"/><stop offset="1" stop-color="#d88112"/></radialGradient>
<marker id="arrow" markerWidth="10" markerHeight="10" refX="8" refY="3" orient="auto"><path d="M0,0 L0,6 L9,3 z" fill="#111827"/></marker>
<marker id="arrowBlue" markerWidth="10" markerHeight="10" refX="8" refY="3" orient="auto"><path d="M0,0 L0,6 L9,3 z" fill="#1769d1"/></marker>
<marker id="arrowOrange" markerWidth="10" markerHeight="10" refX="8" refY="3" orient="auto"><path d="M0,0 L0,6 L9,3 z" fill="#d88112"/></marker>
</defs>
<rect width="100%" height="100%" fill="#fbfaf6"/>
<text x="600.0" y="72" text-anchor="middle" class="title">Qu’est-ce qu’un tensioactif ?</text>
<text x="600.0" y="112" text-anchor="middle" class="subtitle">Une molécule amphiphile relie l’eau et les corps gras.</text>

<g transform="translate(0,20)">
<circle cx="360" cy="385" r="64" fill="url(#headBlue)" stroke="#0b4fa3" stroke-width="3"/>
<path d="M424 385 C475 340 520 430 570 385 S670 340 725 385 S825 430 880 385" fill="none" stroke="#111827" stroke-width="12" stroke-linecap="round"/>
<text x="235" y="285" class="h2 blue">Tête hydrophile</text><text x="260" y="318" class="small blue">aime l’eau</text>
<line x1="340" y1="330" x2="360" y2="365" stroke="#1769d1" stroke-width="3"/>
<text x="695" y="285" class="h2 orange">Queue hydrophobe</text><text x="735" y="318" class="small orange">aime les graisses</text>
<line x1="770" y1="330" x2="725" y2="372" stroke="#d88112" stroke-width="3"/>
<path d="M170 430 C135 375 185 345 180 300 C230 360 255 395 225 438 C210 458 185 458 170 430Z" fill="url(#headBlue)" opacity=".9"/>
<path d="M1015 430 C980 375 1030 345 1025 300 C1075 360 1100 395 1070 438 C1055 458 1030 458 1015 430Z" fill="url(#headOrange)" opacity=".95"/>
<rect x="115" y="610" width="430" height="150" rx="22" class="info"/>
<text x="155" y="660" class="label blue">Deux affinités dans une même molécule</text>
<text x="155" y="696" class="small">Une partie interagit avec l’eau ; l’autre</text><text x="155" y="721" class="small">interagit avec les corps gras.</text>
<rect x="655" y="610" width="430" height="150" rx="22" class="warn"/>
<text x="695" y="660" class="label orange">Exemple : le savon</text>
<text x="700" y="710" class="mono">R–COO⁻ Na⁺</text>
<text x="700" y="742" class="tiny">R = queue hydrophobe ; –COO⁻ = tête hydrophile</text>
</g>

</svg>